<?xml version="1.0" encoding="UTF-8" standalone="no"?>
<!DOCTYPE svg PUBLIC "-//W3C//DTD SVG 1.1//EN"
 "http://www.w3.org/Graphics/SVG/1.1/DTD/svg11.dtd">
<!-- Generated by graphviz version 2.43.0 (0)
 -->
<!-- Title: %3 Pages: 1 -->
<svg width="592pt" height="260pt"
 viewBox="0.00 0.00 592.32 260.00" xmlns="http://www.w3.org/2000/svg" xmlns:xlink="http://www.w3.org/1999/xlink">
<g id="graph0" class="graph" transform="scale(1 1) rotate(0) translate(4 256)">
<title>%3</title>
<polygon fill="white" stroke="transparent" points="-4,4 -4,-256 588.32,-256 588.32,4 -4,4"/>
<!-- 0 -->
<g id="node1" class="node">
<title>0</title>
<ellipse fill="none" stroke="black" cx="180.68" cy="-234" rx="98.58" ry="18"/>
<text text-anchor="middle" x="180.68" y="-230.3" font-family="Times,serif" font-size="14.00">input cols=[rating]</text>
</g>
<!-- 4 -->
<g id="node4" class="node">
<title>4</title>
<ellipse fill="none" stroke="black" cx="180.68" cy="-162" rx="180.87" ry="18"/>
<text text-anchor="middle" x="180.68" y="-158.3" font-family="Times,serif" font-size="14.00">(lambda col: (col &gt; 3).astype(&quot;int8&quot;))</text>
</g>
<!-- 0&#45;&gt;4 -->
<g id="edge4" class="edge">
<title>0&#45;&gt;4</title>
<path fill="none" stroke="black" d="M180.68,-215.7C180.68,-207.98 180.68,-198.71 180.68,-190.11"/>
<polygon fill="black" stroke="black" points="184.18,-190.1 180.68,-180.1 177.18,-190.1 184.18,-190.1"/>
</g>
<!-- 1 -->
<g id="node2" class="node">
<title>1</title>
<ellipse fill="none" stroke="black" cx="309.68" cy="-90" rx="27" ry="18"/>
<text text-anchor="middle" x="309.68" y="-86.3" font-family="Times,serif" font-size="14.00">+</text>
</g>
<!-- 5 -->
<g id="node6" class="node">
<title>5</title>
<ellipse fill="none" stroke="black" cx="309.68" cy="-18" rx="183.87" ry="18"/>
<text text-anchor="middle" x="309.68" y="-14.3" font-family="Times,serif" font-size="14.00">output cols=[userId, movieId, rating]</text>
</g>
<!-- 1&#45;&gt;5 -->
<g id="edge5" class="edge">
<title>1&#45;&gt;5</title>
<path fill="none" stroke="black" d="M309.68,-71.7C309.68,-63.98 309.68,-54.71 309.68,-46.11"/>
<polygon fill="black" stroke="black" points="313.18,-46.1 309.68,-36.1 306.18,-46.1 313.18,-46.1"/>
</g>
<!-- 2 -->
<g id="node3" class="node">
<title>2</title>
<ellipse fill="none" stroke="black" cx="439.68" cy="-162" rx="59.59" ry="18"/>
<text text-anchor="middle" x="439.68" y="-158.3" font-family="Times,serif" font-size="14.00">Categorify</text>
</g>
<!-- 2&#45;&gt;1 -->
<g id="edge1" class="edge">
<title>2&#45;&gt;1</title>
<path fill="none" stroke="black" d="M411.8,-145.98C390.38,-134.45 360.89,-118.57 339.11,-106.84"/>
<polygon fill="black" stroke="black" points="340.75,-103.75 330.29,-102.09 337.43,-109.92 340.75,-103.75"/>
</g>
<!-- 4&#45;&gt;1 -->
<g id="edge2" class="edge">
<title>4&#45;&gt;1</title>
<path fill="none" stroke="black" d="M211.58,-144.23C232.53,-132.87 260.03,-117.95 280.58,-106.79"/>
<polygon fill="black" stroke="black" points="282.37,-109.81 289.49,-101.96 279.03,-103.65 282.37,-109.81"/>
</g>
<!-- 3 -->
<g id="node5" class="node">
<title>3</title>
<ellipse fill="none" stroke="black" cx="440.68" cy="-234" rx="143.77" ry="18"/>
<text text-anchor="middle" x="440.68" y="-230.3" font-family="Times,serif" font-size="14.00">input cols=[userId, movieId]</text>
</g>
<!-- 3&#45;&gt;2 -->
<g id="edge3" class="edge">
<title>3&#45;&gt;2</title>
<path fill="none" stroke="black" d="M440.44,-215.7C440.33,-207.98 440.19,-198.71 440.07,-190.11"/>
<polygon fill="black" stroke="black" points="443.57,-190.05 439.93,-180.1 436.57,-190.15 443.57,-190.05"/>
</g>
</g>
</svg>
