<?xml version="1.0" encoding="UTF-8" standalone="no"?>
<!DOCTYPE svg PUBLIC "-//W3C//DTD SVG 1.1//EN"
 "http://www.w3.org/Graphics/SVG/1.1/DTD/svg11.dtd">
<!-- Generated by graphviz version 2.43.0 (0)
 -->
<!-- Title: %3 Pages: 1 -->
<svg width="709pt" height="548pt"
 viewBox="0.00 0.00 708.87 548.00" xmlns="http://www.w3.org/2000/svg" xmlns:xlink="http://www.w3.org/1999/xlink">
<g id="graph0" class="graph" transform="scale(1 1) rotate(0) translate(4 544)">
<title>%3</title>
<polygon fill="white" stroke="transparent" points="-4,4 -4,-544 704.87,-544 704.87,4 -4,4"/>
<!-- 0 -->
<g id="node1" class="node">
<title>0</title>
<ellipse fill="none" stroke="black" cx="421.49" cy="-162" rx="50.09" ry="18"/>
<text text-anchor="middle" x="421.49" y="-158.3" font-family="Times,serif" font-size="14.00">AddTags</text>
</g>
<!-- 5 -->
<g id="node11" class="node">
<title>5</title>
<ellipse fill="none" stroke="black" cx="310.49" cy="-90" rx="27" ry="18"/>
<text text-anchor="middle" x="310.49" y="-86.3" font-family="Times,serif" font-size="14.00">+</text>
</g>
<!-- 0&#45;&gt;5 -->
<g id="edge8" class="edge">
<title>0&#45;&gt;5</title>
<path fill="none" stroke="black" d="M397.68,-145.98C380.16,-134.94 356.31,-119.89 337.98,-108.34"/>
<polygon fill="black" stroke="black" points="339.81,-105.35 329.48,-102.97 336.07,-111.27 339.81,-105.35"/>
</g>
<!-- 10 -->
<g id="node2" class="node">
<title>10</title>
<ellipse fill="none" stroke="black" cx="469.49" cy="-234" rx="231.26" ry="18"/>
<text text-anchor="middle" x="469.49" y="-230.3" font-family="Times,serif" font-size="14.00">LambdaOp(lambda col: (col &gt; 3).astype(&quot;int8&quot;))</text>
</g>
<!-- 10&#45;&gt;0 -->
<g id="edge1" class="edge">
<title>10&#45;&gt;0</title>
<path fill="none" stroke="black" d="M457.63,-215.7C451.91,-207.35 444.93,-197.18 438.65,-188.02"/>
<polygon fill="black" stroke="black" points="441.43,-185.89 432.89,-179.62 435.66,-189.85 441.43,-185.89"/>
</g>
<!-- 1 -->
<g id="node3" class="node">
<title>1</title>
<ellipse fill="none" stroke="black" cx="151.49" cy="-234" rx="68.49" ry="18"/>
<text text-anchor="middle" x="151.49" y="-230.3" font-family="Times,serif" font-size="14.00">JoinExternal</text>
</g>
<!-- 7 -->
<g id="node12" class="node">
<title>7</title>
<ellipse fill="none" stroke="black" cx="246.49" cy="-162" rx="59.59" ry="18"/>
<text text-anchor="middle" x="246.49" y="-158.3" font-family="Times,serif" font-size="14.00">Categorify</text>
</g>
<!-- 1&#45;&gt;7 -->
<g id="edge10" class="edge">
<title>1&#45;&gt;7</title>
<path fill="none" stroke="black" d="M173.53,-216.76C186.33,-207.33 202.63,-195.32 216.58,-185.04"/>
<polygon fill="black" stroke="black" points="218.93,-187.66 224.91,-178.91 214.78,-182.02 218.93,-187.66"/>
</g>
<!-- 2 -->
<g id="node4" class="node">
<title>2</title>
<ellipse fill="none" stroke="black" cx="151.49" cy="-306" rx="27" ry="18"/>
<text text-anchor="middle" x="151.49" y="-302.3" font-family="Times,serif" font-size="14.00">+</text>
</g>
<!-- 2&#45;&gt;1 -->
<g id="edge2" class="edge">
<title>2&#45;&gt;1</title>
<path fill="none" stroke="black" d="M151.49,-287.7C151.49,-279.98 151.49,-270.71 151.49,-262.11"/>
<polygon fill="black" stroke="black" points="154.99,-262.1 151.49,-252.1 147.99,-262.1 154.99,-262.1"/>
</g>
<!-- 9 -->
<g id="node5" class="node">
<title>9</title>
<ellipse fill="none" stroke="black" cx="71.49" cy="-378" rx="71.49" ry="18"/>
<text text-anchor="middle" x="71.49" y="-374.3" font-family="Times,serif" font-size="14.00">TagAsUserID</text>
</g>
<!-- 9&#45;&gt;2 -->
<g id="edge3" class="edge">
<title>9&#45;&gt;2</title>
<path fill="none" stroke="black" d="M90.45,-360.41C101.64,-350.62 115.9,-338.15 127.82,-327.72"/>
<polygon fill="black" stroke="black" points="130.41,-330.1 135.63,-320.88 125.8,-324.83 130.41,-330.1"/>
</g>
<!-- 6 -->
<g id="node6" class="node">
<title>6</title>
<ellipse fill="none" stroke="black" cx="231.49" cy="-378" rx="70.69" ry="18"/>
<text text-anchor="middle" x="231.49" y="-374.3" font-family="Times,serif" font-size="14.00">TagAsItemID</text>
</g>
<!-- 6&#45;&gt;2 -->
<g id="edge4" class="edge">
<title>6&#45;&gt;2</title>
<path fill="none" stroke="black" d="M212.53,-360.41C201.35,-350.62 187.09,-338.15 175.17,-327.72"/>
<polygon fill="black" stroke="black" points="177.18,-324.83 167.35,-320.88 172.58,-330.1 177.18,-324.83"/>
</g>
<!-- 3 -->
<g id="node7" class="node">
<title>3</title>
<ellipse fill="none" stroke="black" cx="231.49" cy="-450" rx="66.89" ry="18"/>
<text text-anchor="middle" x="231.49" y="-446.3" font-family="Times,serif" font-size="14.00">SelectionOp</text>
</g>
<!-- 3&#45;&gt;6 -->
<g id="edge9" class="edge">
<title>3&#45;&gt;6</title>
<path fill="none" stroke="black" d="M231.49,-431.7C231.49,-423.98 231.49,-414.71 231.49,-406.11"/>
<polygon fill="black" stroke="black" points="234.99,-406.1 231.49,-396.1 227.99,-406.1 234.99,-406.1"/>
</g>
<!-- 3_selector -->
<g id="node8" class="node">
<title>3_selector</title>
<ellipse fill="none" stroke="black" cx="231.49" cy="-522" rx="59.59" ry="18"/>
<text text-anchor="middle" x="231.49" y="-518.3" font-family="Times,serif" font-size="14.00">[&#39;movieId&#39;]</text>
</g>
<!-- 3_selector&#45;&gt;3 -->
<g id="edge5" class="edge">
<title>3_selector&#45;&gt;3</title>
<path fill="none" stroke="black" d="M231.49,-503.7C231.49,-495.98 231.49,-486.71 231.49,-478.11"/>
<polygon fill="black" stroke="black" points="234.99,-478.1 231.49,-468.1 227.99,-478.1 234.99,-478.1"/>
</g>
<!-- 4 -->
<g id="node9" class="node">
<title>4</title>
<ellipse fill="none" stroke="black" cx="469.49" cy="-306" rx="66.89" ry="18"/>
<text text-anchor="middle" x="469.49" y="-302.3" font-family="Times,serif" font-size="14.00">SelectionOp</text>
</g>
<!-- 4&#45;&gt;10 -->
<g id="edge13" class="edge">
<title>4&#45;&gt;10</title>
<path fill="none" stroke="black" d="M469.49,-287.7C469.49,-279.98 469.49,-270.71 469.49,-262.11"/>
<polygon fill="black" stroke="black" points="472.99,-262.1 469.49,-252.1 465.99,-262.1 472.99,-262.1"/>
</g>
<!-- 4_selector -->
<g id="node10" class="node">
<title>4_selector</title>
<ellipse fill="none" stroke="black" cx="469.49" cy="-378" rx="50.89" ry="18"/>
<text text-anchor="middle" x="469.49" y="-374.3" font-family="Times,serif" font-size="14.00">[&#39;rating&#39;]</text>
</g>
<!-- 4_selector&#45;&gt;4 -->
<g id="edge6" class="edge">
<title>4_selector&#45;&gt;4</title>
<path fill="none" stroke="black" d="M469.49,-359.7C469.49,-351.98 469.49,-342.71 469.49,-334.11"/>
<polygon fill="black" stroke="black" points="472.99,-334.1 469.49,-324.1 465.99,-334.1 472.99,-334.1"/>
</g>
<!-- 11 -->
<g id="node15" class="node">
<title>11</title>
<ellipse fill="none" stroke="black" cx="310.49" cy="-18" rx="62.29" ry="18"/>
<text text-anchor="middle" x="310.49" y="-14.3" font-family="Times,serif" font-size="14.00">output cols</text>
</g>
<!-- 5&#45;&gt;11 -->
<g id="edge14" class="edge">
<title>5&#45;&gt;11</title>
<path fill="none" stroke="black" d="M310.49,-71.7C310.49,-63.98 310.49,-54.71 310.49,-46.11"/>
<polygon fill="black" stroke="black" points="313.99,-46.1 310.49,-36.1 306.99,-46.1 313.99,-46.1"/>
</g>
<!-- 7&#45;&gt;5 -->
<g id="edge7" class="edge">
<title>7&#45;&gt;5</title>
<path fill="none" stroke="black" d="M261.66,-144.41C270.06,-135.22 280.62,-123.67 289.78,-113.66"/>
<polygon fill="black" stroke="black" points="292.58,-115.78 296.74,-106.04 287.41,-111.06 292.58,-115.78"/>
</g>
<!-- 8 -->
<g id="node13" class="node">
<title>8</title>
<ellipse fill="none" stroke="black" cx="71.49" cy="-450" rx="66.89" ry="18"/>
<text text-anchor="middle" x="71.49" y="-446.3" font-family="Times,serif" font-size="14.00">SelectionOp</text>
</g>
<!-- 8&#45;&gt;9 -->
<g id="edge12" class="edge">
<title>8&#45;&gt;9</title>
<path fill="none" stroke="black" d="M71.49,-431.7C71.49,-423.98 71.49,-414.71 71.49,-406.11"/>
<polygon fill="black" stroke="black" points="74.99,-406.1 71.49,-396.1 67.99,-406.1 74.99,-406.1"/>
</g>
<!-- 8_selector -->
<g id="node14" class="node">
<title>8_selector</title>
<ellipse fill="none" stroke="black" cx="71.49" cy="-522" rx="51.99" ry="18"/>
<text text-anchor="middle" x="71.49" y="-518.3" font-family="Times,serif" font-size="14.00">[&#39;userId&#39;]</text>
</g>
<!-- 8_selector&#45;&gt;8 -->
<g id="edge11" class="edge">
<title>8_selector&#45;&gt;8</title>
<path fill="none" stroke="black" d="M71.49,-503.7C71.49,-495.98 71.49,-486.71 71.49,-478.11"/>
<polygon fill="black" stroke="black" points="74.99,-478.1 71.49,-468.1 67.99,-478.1 74.99,-478.1"/>
</g>
</g>
</svg>