<?xml version="1.0" encoding="UTF-8" standalone="no"?>
<!DOCTYPE svg PUBLIC "-//W3C//DTD SVG 1.1//EN"
 "http://www.w3.org/Graphics/SVG/1.1/DTD/svg11.dtd">
<!-- Generated by graphviz version 2.43.0 (0)
 -->
<!-- Title: %3 Pages: 1 -->
<svg width="510pt" height="260pt"
 viewBox="0.00 0.00 510.43 260.00" xmlns="http://www.w3.org/2000/svg" xmlns:xlink="http://www.w3.org/1999/xlink">
<g id="graph0" class="graph" transform="scale(1 1) rotate(0) translate(4 256)">
<title>%3</title>
<polygon fill="white" stroke="transparent" points="-4,4 -4,-256 506.43,-256 506.43,4 -4,4"/>
<!-- 0 -->
<g id="node1" class="node">
<title>0</title>
<ellipse fill="none" stroke="black" cx="143.64" cy="-234" rx="143.77" ry="18"/>
<text text-anchor="middle" x="143.64" y="-230.3" font-family="Times,serif" font-size="14.00">input cols=[userId, movieId]</text>
</g>
<!-- 4 -->
<g id="node5" class="node">
<title>4</title>
<ellipse fill="none" stroke="black" cx="203.64" cy="-162" rx="59.59" ry="18"/>
<text text-anchor="middle" x="203.64" y="-158.3" font-family="Times,serif" font-size="14.00">Categorify</text>
</g>
<!-- 0&#45;&gt;4 -->
<g id="edge4" class="edge">
<title>0&#45;&gt;4</title>
<path fill="none" stroke="black" d="M158.16,-216.05C165.53,-207.46 174.62,-196.86 182.73,-187.4"/>
<polygon fill="black" stroke="black" points="185.4,-189.66 189.25,-179.79 180.08,-185.1 185.4,-189.66"/>
</g>
<!-- 1 -->
<g id="node2" class="node">
<title>1</title>
<ellipse fill="none" stroke="black" cx="372.64" cy="-162" rx="61.19" ry="18"/>
<text text-anchor="middle" x="372.64" y="-158.3" font-family="Times,serif" font-size="14.00">LambdaOp</text>
</g>
<!-- 3 -->
<g id="node4" class="node">
<title>3</title>
<ellipse fill="none" stroke="black" cx="272.64" cy="-90" rx="27" ry="18"/>
<text text-anchor="middle" x="272.64" y="-86.3" font-family="Times,serif" font-size="14.00">+</text>
</g>
<!-- 1&#45;&gt;3 -->
<g id="edge3" class="edge">
<title>1&#45;&gt;3</title>
<path fill="none" stroke="black" d="M349.95,-145.12C334.78,-134.5 314.77,-120.49 298.91,-109.39"/>
<polygon fill="black" stroke="black" points="300.78,-106.43 290.58,-103.56 296.77,-112.16 300.78,-106.43"/>
</g>
<!-- 2 -->
<g id="node3" class="node">
<title>2</title>
<ellipse fill="none" stroke="black" cx="403.64" cy="-234" rx="98.58" ry="18"/>
<text text-anchor="middle" x="403.64" y="-230.3" font-family="Times,serif" font-size="14.00">input cols=[rating]</text>
</g>
<!-- 2&#45;&gt;1 -->
<g id="edge1" class="edge">
<title>2&#45;&gt;1</title>
<path fill="none" stroke="black" d="M395.97,-215.7C392.45,-207.73 388.18,-198.1 384.27,-189.26"/>
<polygon fill="black" stroke="black" points="387.46,-187.83 380.21,-180.1 381.06,-190.67 387.46,-187.83"/>
</g>
<!-- 5 -->
<g id="node6" class="node">
<title>5</title>
<ellipse fill="none" stroke="black" cx="272.64" cy="-18" rx="183.87" ry="18"/>
<text text-anchor="middle" x="272.64" y="-14.3" font-family="Times,serif" font-size="14.00">output cols=[userId, movieId, rating]</text>
</g>
<!-- 3&#45;&gt;5 -->
<g id="edge5" class="edge">
<title>3&#45;&gt;5</title>
<path fill="none" stroke="black" d="M272.64,-71.7C272.64,-63.98 272.64,-54.71 272.64,-46.11"/>
<polygon fill="black" stroke="black" points="276.14,-46.1 272.64,-36.1 269.14,-46.1 276.14,-46.1"/>
</g>
<!-- 4&#45;&gt;3 -->
<g id="edge2" class="edge">
<title>4&#45;&gt;3</title>
<path fill="none" stroke="black" d="M219.99,-144.41C229.26,-135 240.98,-123.12 251.01,-112.94"/>
<polygon fill="black" stroke="black" points="253.75,-115.15 258.27,-105.57 248.76,-110.24 253.75,-115.15"/>
</g>
</g>
</svg>
