<?xml version="1.0" encoding="UTF-8" standalone="no"?>
<svg
   xmlns:dc="http://purl.org/dc/elements/1.1/"
   xmlns:cc="http://creativecommons.org/ns#"
   xmlns:rdf="http://www.w3.org/1999/02/22-rdf-syntax-ns#"
   xmlns:svg="http://www.w3.org/2000/svg"
   xmlns="http://www.w3.org/2000/svg"
   xmlns:sodipodi="http://sodipodi.sourceforge.net/DTD/sodipodi-0.dtd"
   xmlns:inkscape="http://www.inkscape.org/namespaces/inkscape"
   width="401.64008"
   height="361.09546"
   viewBox="0 0 106.26727 95.539841"
   version="1.1"
   id="svg8"
   inkscape:version="1.0.2 (e86c870879, 2021-01-15)"
   sodipodi:docname="graph_simple.svg">
  <defs
     id="defs2">
    <marker
       style="overflow:visible"
       id="marker2120"
       refX="0"
       refY="0"
       orient="auto"
       inkscape:stockid="Arrow2Lend"
       inkscape:isstock="true">
      <path
         transform="matrix(-1.1,0,0,-1.1,-1.1,0)"
         d="M 8.7185878,4.0337352 -2.2072895,0.01601326 8.7185884,-4.0017078 c -1.7454984,2.3720609 -1.7354408,5.6174519 -6e-7,8.035443 z"
         style="fill:#000000;fill-opacity:1;fill-rule:evenodd;stroke:#000000;stroke-width:0.625;stroke-linejoin:round;stroke-opacity:1"
         id="path2118" />
    </marker>
    <rect
       x="109.53925"
       y="19.147818"
       width="43.493198"
       height="15.121445"
       id="rect851" />
    <rect
       x="109.53925"
       y="19.147818"
       width="78.523193"
       height="15.219549"
       id="rect851-7" />
  </defs>
  <sodipodi:namedview
     id="base"
     pagecolor="#ffffff"
     bordercolor="#000000"
     borderopacity="1"
     inkscape:pageopacity="0.0"
     inkscape:pageshadow="2"
     inkscape:zoom="0.76"
     inkscape:cx="112.38279"
     inkscape:cy="359.42121"
     inkscape:document-units="px"
     inkscape:current-layer="layer1"
     inkscape:document-rotation="0"
     showgrid="true"
     inkscape:window-width="1411"
     inkscape:window-height="1199"
     inkscape:window-x="1899"
     inkscape:window-y="152"
     inkscape:window-maximized="0"
     fit-margin-top="0"
     fit-margin-left="0"
     fit-margin-right="0"
     fit-margin-bottom="0"
     units="px"
     borderlayer="true">
    <inkscape:grid
       type="xygrid"
       id="grid934"
       originx="-26.332101"
       originy="5.4365851" />
  </sodipodi:namedview>
  <metadata
     id="metadata5">
    <rdf:RDF>
      <cc:Work
         rdf:about="">
        <dc:format>image/svg+xml</dc:format>
        <dc:type
           rdf:resource="http://purl.org/dc/dcmitype/StillImage" />
        <dc:title></dc:title>
      </cc:Work>
    </rdf:RDF>
  </metadata>
  <g
     inkscape:label="Layer 1"
     inkscape:groupmode="layer"
     id="layer1"
     transform="translate(-26.332101,5.4365859)">
    <g
       id="g916"
       transform="matrix(0.91947793,0,0,0.97926461,42.029855,-0.07497264)">
      <ellipse
         style="fill:none;stroke:#000000;stroke-width:0.264583;stroke-miterlimit:4;stroke-dasharray:none;stroke-opacity:1"
         id="path10"
         cx="52.631874"
         cy="29.13448"
         rx="38.484512"
         ry="13.968424" />
      <g
         aria-label="SelectionOp
[&quot;col1&quot;, &quot;col2&quot;]"
         transform="translate(-78.654263,1.9236085)"
         id="text849"
         style="font-style:normal;font-variant:normal;font-weight:bold;font-stretch:normal;font-size:4.23333px;line-height:1.25;font-family:'NVIDIA Sans';-inkscape-font-specification:'NVIDIA Sans, Bold';font-variant-ligatures:normal;font-variant-caps:normal;font-variant-numeric:normal;font-variant-east-asian:normal;white-space:pre;shape-inside:url(#rect851)">
        <path
           d="m 120.23505,23.02946 q -0.9271,0 -1.1811,-0.656166 l 0.5207,-0.2667 q 0.14817,0.3937 0.6604,0.3937 h 0.055 q 0.53764,0 0.53764,-0.347133 v -0.04233 q 0,-0.135467 -0.0931,-0.232834 -0.0931,-0.09737 -0.2667,-0.118533 l -0.46143,-0.05503 q -0.42333,-0.0508 -0.64346,-0.262467 -0.22014,-0.215899 -0.22014,-0.584199 v -0.0508 q 0,-0.262466 0.13547,-0.452966 0.13547,-0.194733 0.381,-0.300567 0.24977,-0.105833 0.5842,-0.105833 h 0.0635 q 0.4064,0 0.6858,0.1651 0.2794,0.160866 0.40216,0.4699 l -0.54186,0.228599 q -0.1143,-0.334433 -0.55034,-0.334433 h -0.055 q -0.2286,0 -0.35983,0.0889 -0.127,0.0889 -0.127,0.237067 v 0.04233 q 0,0.258233 0.3556,0.3048 l 0.46143,0.05503 q 0.4318,0.0508 0.6477,0.283633 0.22013,0.232833 0.22013,0.605366 v 0.0508 q 0,0.423333 -0.29633,0.656166 -0.29633,0.2286 -0.8509,0.2286 z"
           style="font-style:normal;font-variant:normal;font-weight:bold;font-stretch:normal;font-size:4.23333px;font-family:'NVIDIA Sans';-inkscape-font-specification:'NVIDIA Sans, Bold';font-variant-ligatures:normal;font-variant-caps:normal;font-variant-numeric:normal;font-variant-east-asian:normal;text-align:center;text-anchor:middle"
           id="path2684" />
        <path
           d="m 122.77928,23.02946 q -0.49953,0 -0.7747,-0.283633 -0.27516,-0.283633 -0.27516,-0.800099 v -0.127 q 0,-0.516466 0.2794,-0.804333 0.2794,-0.287866 0.77046,-0.287866 h 0.0339 q 0.46566,0 0.7239,0.283633 0.26246,0.2794 0.26246,0.774699 v 0.2667 h -1.48589 q 0.0296,0.503766 0.46566,0.503766 h 0.0593 q 0.33443,0 0.4699,-0.224366 l 0.42756,0.283633 q -0.11853,0.194733 -0.3556,0.3048 -0.23283,0.110066 -0.53763,0.110066 z m -0.46143,-1.375832 h 0.90593 v -0.0127 q 0,-0.440266 -0.41063,-0.440266 h -0.0339 q -0.4064,0 -0.46143,0.452966 z"
           style="font-style:normal;font-variant:normal;font-weight:bold;font-stretch:normal;font-size:4.23333px;font-family:'NVIDIA Sans';-inkscape-font-specification:'NVIDIA Sans, Bold';font-variant-ligatures:normal;font-variant-caps:normal;font-variant-numeric:normal;font-variant-east-asian:normal;text-align:center;text-anchor:middle"
           id="path2686" />
        <path
           d="m 124.21861,22.970194 v -3.090331 h 0.59267 v 3.090331 z"
           style="font-style:normal;font-variant:normal;font-weight:bold;font-stretch:normal;font-size:4.23333px;font-family:'NVIDIA Sans';-inkscape-font-specification:'NVIDIA Sans, Bold';font-variant-ligatures:normal;font-variant-caps:normal;font-variant-numeric:normal;font-variant-east-asian:normal;text-align:center;text-anchor:middle"
           id="path2688" />
        <path
           d="m 126.29717,23.02946 q -0.49954,0 -0.7747,-0.283633 -0.27517,-0.283633 -0.27517,-0.800099 v -0.127 q 0,-0.516466 0.2794,-0.804333 0.2794,-0.287866 0.77047,-0.287866 h 0.0339 q 0.46567,0 0.7239,0.283633 0.26247,0.2794 0.26247,0.774699 v 0.2667 h -1.4859 q 0.0296,0.503766 0.46567,0.503766 h 0.0593 q 0.33444,0 0.4699,-0.224366 l 0.42757,0.283633 q -0.11853,0.194733 -0.3556,0.3048 -0.23283,0.110066 -0.53763,0.110066 z m -0.46144,-1.375832 h 0.90594 v -0.0127 q 0,-0.440266 -0.41064,-0.440266 h -0.0339 q -0.4064,0 -0.46144,0.452966 z"
           style="font-style:normal;font-variant:normal;font-weight:bold;font-stretch:normal;font-size:4.23333px;font-family:'NVIDIA Sans';-inkscape-font-specification:'NVIDIA Sans, Bold';font-variant-ligatures:normal;font-variant-caps:normal;font-variant-numeric:normal;font-variant-east-asian:normal;text-align:center;text-anchor:middle"
           id="path2690" />
        <path
           d="m 128.69323,23.02946 q -0.49107,0 -0.78317,-0.2794 -0.28786,-0.279399 -0.28786,-0.808566 v -0.126999 q 0,-0.347134 0.13123,-0.588433 0.13547,-0.245533 0.37676,-0.372533 0.2413,-0.127 0.56304,-0.127 h 0.0339 q 0.3175,0 0.5334,0.1524 0.22014,0.1524 0.31327,0.402166 l -0.47837,0.2032 q -0.0508,-0.110067 -0.14393,-0.1778 -0.0889,-0.07197 -0.22437,-0.07197 h -0.0296 q -0.2159,0 -0.35137,0.1397 -0.13123,0.135467 -0.13123,0.427567 v 0.152399 q 0,0.300567 0.127,0.436033 0.13123,0.131234 0.3556,0.131234 h 0.0296 q 0.14817,0 0.24554,-0.0635 0.0974,-0.0635 0.1524,-0.173567 l 0.46143,0.2413 q -0.0931,0.2159 -0.3175,0.359833 -0.22437,0.143933 -0.54187,0.143933 z"
           style="font-style:normal;font-variant:normal;font-weight:bold;font-stretch:normal;font-size:4.23333px;font-family:'NVIDIA Sans';-inkscape-font-specification:'NVIDIA Sans, Bold';font-variant-ligatures:normal;font-variant-caps:normal;font-variant-numeric:normal;font-variant-east-asian:normal;text-align:center;text-anchor:middle"
           id="path2692" />
        <path
           d="m 131.07235,22.995594 q -0.45297,0 -0.64347,-0.194734 -0.18627,-0.194733 -0.18627,-0.579966 v -0.939799 h -0.4572 v -0.4953 h 0.4572 v -0.622299 h 0.59267 v 0.622299 h 0.6731 l -0.072,0.4953 h -0.60113 v 0.918633 q 0,0.156633 0.0762,0.228599 0.0804,0.06773 0.2159,0.06773 h 0.381 v 0.499533 z"
           style="font-style:normal;font-variant:normal;font-weight:bold;font-stretch:normal;font-size:4.23333px;font-family:'NVIDIA Sans';-inkscape-font-specification:'NVIDIA Sans, Bold';font-variant-ligatures:normal;font-variant-caps:normal;font-variant-numeric:normal;font-variant-east-asian:normal;text-align:center;text-anchor:middle"
           id="path2694" />
        <path
           d="m 131.91901,22.970194 v -2.184399 h 0.59267 v 2.184399 z m -0.008,-2.493432 v -0.592666 h 0.6096 v 0.592666 z"
           style="font-style:normal;font-variant:normal;font-weight:bold;font-stretch:normal;font-size:4.23333px;font-family:'NVIDIA Sans';-inkscape-font-specification:'NVIDIA Sans, Bold';font-variant-ligatures:normal;font-variant-caps:normal;font-variant-numeric:normal;font-variant-east-asian:normal;text-align:center;text-anchor:middle"
           id="path2696" />
        <path
           d="m 134.0145,23.02946 q -0.3048,0 -0.5461,-0.127 -0.24129,-0.127 -0.38099,-0.368299 -0.1397,-0.245534 -0.1397,-0.592667 v -0.126999 q 0,-0.351367 0.1397,-0.592667 0.1397,-0.241299 0.38099,-0.368299 0.2413,-0.127 0.5461,-0.127 h 0.0296 q 0.3048,0 0.5461,0.127 0.2413,0.127 0.381,0.368299 0.1397,0.2413 0.1397,0.592667 v 0.126999 q 0,0.347133 -0.1397,0.592667 -0.1397,0.241299 -0.381,0.368299 -0.2413,0.127 -0.5461,0.127 z m 0,-0.507999 h 0.0296 q 0.20743,0 0.33866,-0.135467 0.13547,-0.135467 0.13547,-0.4318 v -0.152399 q 0,-0.296334 -0.13547,-0.4318 -0.13123,-0.135467 -0.33866,-0.135467 h -0.0296 q -0.20743,0 -0.3429,0.135467 -0.13123,0.135466 -0.13123,0.4318 v 0.152399 q 0,0.296333 0.13123,0.4318 0.13547,0.135467 0.3429,0.135467 z"
           style="font-style:normal;font-variant:normal;font-weight:bold;font-stretch:normal;font-size:4.23333px;font-family:'NVIDIA Sans';-inkscape-font-specification:'NVIDIA Sans, Bold';font-variant-ligatures:normal;font-variant-caps:normal;font-variant-numeric:normal;font-variant-east-asian:normal;text-align:center;text-anchor:middle"
           id="path2698" />
        <path
           d="m 135.54697,22.970194 v -2.184399 h 0.51647 v 0.270933 q 0.11006,-0.156633 0.2794,-0.241299 0.17356,-0.0889 0.38523,-0.0889 h 0.0423 q 0.37253,0 0.58843,0.232833 0.22014,0.2286 0.22014,0.656166 v 1.354666 h -0.59267 v -1.274233 q 0,-0.220133 -0.0931,-0.338666 -0.0889,-0.122767 -0.28363,-0.122767 h -0.0339 q -0.10583,0 -0.20743,0.05503 -0.0974,0.05503 -0.1651,0.169333 -0.0635,0.1143 -0.0635,0.300566 v 1.210733 z"
           style="font-style:normal;font-variant:normal;font-weight:bold;font-stretch:normal;font-size:4.23333px;font-family:'NVIDIA Sans';-inkscape-font-specification:'NVIDIA Sans, Bold';font-variant-ligatures:normal;font-variant-caps:normal;font-variant-numeric:normal;font-variant-east-asian:normal;text-align:center;text-anchor:middle"
           id="path2700" />
        <path
           d="m 139.42046,23.02946 q -0.4318,0 -0.74083,-0.1778 -0.3048,-0.1778 -0.4699,-0.503766 -0.16087,-0.325966 -0.16087,-0.774699 v -0.169333 q 0,-0.448733 0.16087,-0.7747 0.1651,-0.325966 0.4699,-0.503766 0.30903,-0.1778 0.74083,-0.1778 h 0.0423 q 0.4318,0 0.7366,0.1778 0.30903,0.1778 0.4699,0.503766 0.1651,0.325967 0.1651,0.7747 v 0.169333 q 0,0.448733 -0.1651,0.774699 -0.16087,0.325966 -0.4699,0.503766 -0.3048,0.1778 -0.7366,0.1778 z m 0.004,-0.541866 h 0.0339 q 0.34713,0 0.55033,-0.224367 0.20743,-0.224366 0.20743,-0.677332 v -0.194733 q 0,-0.452967 -0.20743,-0.677333 -0.2032,-0.224367 -0.55033,-0.224367 h -0.0339 q -0.34713,0 -0.55456,0.224367 -0.2032,0.224366 -0.2032,0.677333 v 0.194733 q 0,0.452966 0.2032,0.677332 0.20743,0.224367 0.55456,0.224367 z"
           style="font-style:normal;font-variant:normal;font-weight:bold;font-stretch:normal;font-size:4.23333px;font-family:'NVIDIA Sans';-inkscape-font-specification:'NVIDIA Sans, Bold';font-variant-ligatures:normal;font-variant-caps:normal;font-variant-numeric:normal;font-variant-east-asian:normal;text-align:center;text-anchor:middle"
           id="path2702" />
        <path
           d="m 141.32969,23.816859 v -3.031064 h 0.51646 v 0.270933 q 0.22437,-0.330199 0.69004,-0.330199 h 0.0296 q 0.2667,0 0.4699,0.127 0.20743,0.122766 0.32173,0.368299 0.11853,0.2413 0.11853,0.5969 v 0.127 q 0,0.347133 -0.11853,0.592666 -0.1143,0.2413 -0.32173,0.3683 -0.2032,0.122766 -0.4699,0.122766 h -0.0296 q -0.3937,0 -0.61384,-0.262466 v 1.049865 z m 1.04563,-1.295398 h 0.0339 q 0.2032,0 0.33866,-0.135467 0.13547,-0.135467 0.13547,-0.436033 v -0.1397 q 0,-0.300566 -0.13547,-0.436033 -0.13546,-0.1397 -0.33866,-0.1397 h -0.0339 q -0.11007,0 -0.22013,0.05927 -0.10584,0.05503 -0.17357,0.182033 -0.0677,0.122767 -0.0677,0.334433 v 0.135467 q 0,0.207433 0.0677,0.334433 0.072,0.127 0.1778,0.186266 0.11007,0.05503 0.2159,0.05503 z"
           style="font-style:normal;font-variant:normal;font-weight:bold;font-stretch:normal;font-size:4.23333px;font-family:'NVIDIA Sans';-inkscape-font-specification:'NVIDIA Sans, Bold';font-variant-ligatures:normal;font-variant-caps:normal;font-variant-numeric:normal;font-variant-east-asian:normal;text-align:center;text-anchor:middle"
           id="path2704" />
        <path
           d="m 116.8484,28.812189 v -3.809997 h 1.1938 v 0.512233 h -0.58843 v 2.785531 h 0.58843 v 0.512233 z"
           style="font-style:normal;font-variant:normal;font-weight:bold;font-stretch:normal;font-size:4.23333px;font-family:'NVIDIA Sans';-inkscape-font-specification:'NVIDIA Sans, Bold';font-variant-ligatures:normal;font-variant-caps:normal;font-variant-numeric:normal;font-variant-east-asian:normal;text-align:center;text-anchor:middle"
           id="path2706" />
        <path
           d="m 118.50786,26.255257 -0.11007,-1.083732 h 0.5842 l -0.11006,1.083732 z m 0.87206,0 -0.11006,-1.083732 h 0.5842 l -0.11007,1.083732 z"
           style="font-style:normal;font-variant:normal;font-weight:bold;font-stretch:normal;font-size:4.23333px;font-family:'NVIDIA Sans';-inkscape-font-specification:'NVIDIA Sans, Bold';font-variant-ligatures:normal;font-variant-caps:normal;font-variant-numeric:normal;font-variant-east-asian:normal;text-align:center;text-anchor:middle"
           id="path2708" />
        <path
           d="m 121.20872,28.321122 q -0.49107,0 -0.78317,-0.279399 -0.28786,-0.2794 -0.28786,-0.808566 v -0.127 q 0,-0.347133 0.13123,-0.588433 0.13547,-0.245533 0.37677,-0.372533 0.2413,-0.127 0.56303,-0.127 h 0.0339 q 0.3175,0 0.53339,0.1524 0.22014,0.1524 0.31327,0.402166 l -0.47837,0.2032 q -0.0508,-0.110067 -0.14393,-0.1778 -0.0889,-0.07197 -0.22436,-0.07197 h -0.0296 q -0.2159,0 -0.35136,0.139699 -0.13124,0.135467 -0.13124,0.427567 v 0.1524 q 0,0.300566 0.127,0.436033 0.13124,0.131233 0.3556,0.131233 h 0.0296 q 0.14816,0 0.24553,-0.0635 0.0974,-0.0635 0.1524,-0.173567 l 0.46143,0.2413 q -0.0931,0.2159 -0.3175,0.359833 -0.22436,0.143933 -0.54186,0.143933 z"
           style="font-style:normal;font-variant:normal;font-weight:bold;font-stretch:normal;font-size:4.23333px;font-family:'NVIDIA Sans';-inkscape-font-specification:'NVIDIA Sans, Bold';font-variant-ligatures:normal;font-variant-caps:normal;font-variant-numeric:normal;font-variant-east-asian:normal;text-align:center;text-anchor:middle"
           id="path2710" />
        <path
           d="m 123.44814,28.321122 q -0.30479,0 -0.54609,-0.127 -0.2413,-0.126999 -0.381,-0.368299 -0.1397,-0.245533 -0.1397,-0.592666 v -0.127 q 0,-0.351367 0.1397,-0.592666 0.1397,-0.2413 0.381,-0.3683 0.2413,-0.127 0.54609,-0.127 h 0.0296 q 0.3048,0 0.5461,0.127 0.2413,0.127 0.381,0.3683 0.1397,0.241299 0.1397,0.592666 v 0.127 q 0,0.347133 -0.1397,0.592666 -0.1397,0.2413 -0.381,0.368299 -0.2413,0.127 -0.5461,0.127 z m 0,-0.507999 h 0.0296 q 0.20743,0 0.33866,-0.135467 0.13547,-0.135466 0.13547,-0.431799 v -0.1524 q 0,-0.296333 -0.13547,-0.4318 -0.13123,-0.135466 -0.33866,-0.135466 h -0.0296 q -0.20743,0 -0.34289,0.135466 -0.13124,0.135467 -0.13124,0.4318 v 0.1524 q 0,0.296333 0.13124,0.431799 0.13546,0.135467 0.34289,0.135467 z"
           style="font-style:normal;font-variant:normal;font-weight:bold;font-stretch:normal;font-size:4.23333px;font-family:'NVIDIA Sans';-inkscape-font-specification:'NVIDIA Sans, Bold';font-variant-ligatures:normal;font-variant-caps:normal;font-variant-numeric:normal;font-variant-east-asian:normal;text-align:center;text-anchor:middle"
           id="path2712" />
        <path
           d="m 124.98061,28.261856 v -3.090331 h 0.59267 v 3.090331 z"
           style="font-style:normal;font-variant:normal;font-weight:bold;font-stretch:normal;font-size:4.23333px;font-family:'NVIDIA Sans';-inkscape-font-specification:'NVIDIA Sans, Bold';font-variant-ligatures:normal;font-variant-caps:normal;font-variant-numeric:normal;font-variant-east-asian:normal;text-align:center;text-anchor:middle"
           id="path2714" />
        <path
           d="m 126.9364,28.261856 v -2.391832 h -0.508 l 0.072,-0.520699 h 1.0414 v 2.912531 z"
           style="font-style:normal;font-variant:normal;font-weight:bold;font-stretch:normal;font-size:4.23333px;font-family:'NVIDIA Sans';-inkscape-font-specification:'NVIDIA Sans, Bold';font-variant-ligatures:normal;font-variant-caps:normal;font-variant-numeric:normal;font-variant-east-asian:normal;text-align:center;text-anchor:middle"
           id="path2716" />
        <path
           d="m 128.70593,26.255257 -0.11007,-1.083732 h 0.5842 l -0.11007,1.083732 z m 0.87206,0 -0.11006,-1.083732 h 0.5842 l -0.11007,1.083732 z"
           style="font-style:normal;font-variant:normal;font-weight:bold;font-stretch:normal;font-size:4.23333px;font-family:'NVIDIA Sans';-inkscape-font-specification:'NVIDIA Sans, Bold';font-variant-ligatures:normal;font-variant-caps:normal;font-variant-numeric:normal;font-variant-east-asian:normal;text-align:center;text-anchor:middle"
           id="path2718" />
        <path
           d="m 130.51356,29.032322 -0.18627,-0.262467 0.15663,-0.110066 q 0.1016,-0.07197 0.1524,-0.143933 0.0508,-0.06773 0.0508,-0.232834 v -0.02117 h -0.28363 V 27.61839 h 0.6223 v 0.677332 q 0,0.1778 -0.0466,0.287867 -0.0423,0.1143 -0.127,0.1905 -0.0847,0.08043 -0.20743,0.1651 z"
           style="font-style:normal;font-variant:normal;font-weight:bold;font-stretch:normal;font-size:4.23333px;font-family:'NVIDIA Sans';-inkscape-font-specification:'NVIDIA Sans, Bold';font-variant-ligatures:normal;font-variant-caps:normal;font-variant-numeric:normal;font-variant-east-asian:normal;text-align:center;text-anchor:middle"
           id="path2720" />
        <path
           d="m 132.63021,26.255257 -0.11007,-1.083732 h 0.5842 l -0.11007,1.083732 z m 0.87206,0 -0.11006,-1.083732 h 0.5842 l -0.11007,1.083732 z"
           style="font-style:normal;font-variant:normal;font-weight:bold;font-stretch:normal;font-size:4.23333px;font-family:'NVIDIA Sans';-inkscape-font-specification:'NVIDIA Sans, Bold';font-variant-ligatures:normal;font-variant-caps:normal;font-variant-numeric:normal;font-variant-east-asian:normal;text-align:center;text-anchor:middle"
           id="path2722" />
        <path
           d="m 135.33107,28.321122 q -0.49107,0 -0.78317,-0.279399 -0.28786,-0.2794 -0.28786,-0.808566 v -0.127 q 0,-0.347133 0.13123,-0.588433 0.13547,-0.245533 0.37677,-0.372533 0.2413,-0.127 0.56303,-0.127 h 0.0339 q 0.3175,0 0.5334,0.1524 0.22013,0.1524 0.31326,0.402166 l -0.47836,0.2032 q -0.0508,-0.110067 -0.14394,-0.1778 -0.0889,-0.07197 -0.22436,-0.07197 h -0.0296 q -0.2159,0 -0.35136,0.139699 -0.13124,0.135467 -0.13124,0.427567 v 0.1524 q 0,0.300566 0.127,0.436033 0.13124,0.131233 0.3556,0.131233 h 0.0296 q 0.14816,0 0.24553,-0.0635 0.0974,-0.0635 0.1524,-0.173567 l 0.46143,0.2413 q -0.0931,0.2159 -0.3175,0.359833 -0.22436,0.143933 -0.54186,0.143933 z"
           style="font-style:normal;font-variant:normal;font-weight:bold;font-stretch:normal;font-size:4.23333px;font-family:'NVIDIA Sans';-inkscape-font-specification:'NVIDIA Sans, Bold';font-variant-ligatures:normal;font-variant-caps:normal;font-variant-numeric:normal;font-variant-east-asian:normal;text-align:center;text-anchor:middle"
           id="path2724" />
        <path
           d="m 137.57049,28.321122 q -0.3048,0 -0.5461,-0.127 -0.2413,-0.126999 -0.381,-0.368299 -0.1397,-0.245533 -0.1397,-0.592666 v -0.127 q 0,-0.351367 0.1397,-0.592666 0.1397,-0.2413 0.381,-0.3683 0.2413,-0.127 0.5461,-0.127 h 0.0296 q 0.3048,0 0.5461,0.127 0.2413,0.127 0.381,0.3683 0.1397,0.241299 0.1397,0.592666 v 0.127 q 0,0.347133 -0.1397,0.592666 -0.1397,0.2413 -0.381,0.368299 -0.2413,0.127 -0.5461,0.127 z m 0,-0.507999 h 0.0296 q 0.20743,0 0.33866,-0.135467 0.13547,-0.135466 0.13547,-0.431799 v -0.1524 q 0,-0.296333 -0.13547,-0.4318 -0.13123,-0.135466 -0.33866,-0.135466 h -0.0296 q -0.20743,0 -0.3429,0.135466 -0.13123,0.135467 -0.13123,0.4318 v 0.1524 q 0,0.296333 0.13123,0.431799 0.13547,0.135467 0.3429,0.135467 z"
           style="font-style:normal;font-variant:normal;font-weight:bold;font-stretch:normal;font-size:4.23333px;font-family:'NVIDIA Sans';-inkscape-font-specification:'NVIDIA Sans, Bold';font-variant-ligatures:normal;font-variant-caps:normal;font-variant-numeric:normal;font-variant-east-asian:normal;text-align:center;text-anchor:middle"
           id="path2726" />
        <path
           d="m 139.10296,28.261856 v -3.090331 h 0.59266 v 3.090331 z"
           style="font-style:normal;font-variant:normal;font-weight:bold;font-stretch:normal;font-size:4.23333px;font-family:'NVIDIA Sans';-inkscape-font-specification:'NVIDIA Sans, Bold';font-variant-ligatures:normal;font-variant-caps:normal;font-variant-numeric:normal;font-variant-east-asian:normal;text-align:center;text-anchor:middle"
           id="path2728" />
        <path
           d="m 140.22479,28.261856 v -0.448733 q 0,-0.3048 0.14816,-0.550333 0.14817,-0.245533 0.4191,-0.389466 l 0.4953,-0.2667 q 0.33867,-0.1778 0.33867,-0.436033 v -0.04233 q 0,-0.135467 -0.11007,-0.224367 -0.11006,-0.0889 -0.2794,-0.0889 h -0.0212 q -0.19897,0 -0.3175,0.0762 -0.1143,0.0762 -0.16934,0.2413 l -0.508,-0.224367 q 0.20744,-0.609599 0.99907,-0.609599 h 0.0466 q 0.44026,0 0.69849,0.220133 0.25824,0.220133 0.25824,0.592666 v 0.06773 q 0,0.287866 -0.14817,0.491066 -0.14393,0.198966 -0.4953,0.389466 l -0.43603,0.237067 q -0.254,0.139699 -0.27093,0.431799 h 1.35889 v 0.5334 z"
           style="font-style:normal;font-variant:normal;font-weight:bold;font-stretch:normal;font-size:4.23333px;font-family:'NVIDIA Sans';-inkscape-font-specification:'NVIDIA Sans, Bold';font-variant-ligatures:normal;font-variant-caps:normal;font-variant-numeric:normal;font-variant-east-asian:normal;text-align:center;text-anchor:middle"
           id="path2730" />
        <path
           d="m 142.82828,26.255257 -0.11007,-1.083732 h 0.5842 l -0.11007,1.083732 z m 0.87206,0 -0.11006,-1.083732 h 0.5842 l -0.11007,1.083732 z"
           style="font-style:normal;font-variant:normal;font-weight:bold;font-stretch:normal;font-size:4.23333px;font-family:'NVIDIA Sans';-inkscape-font-specification:'NVIDIA Sans, Bold';font-variant-ligatures:normal;font-variant-caps:normal;font-variant-numeric:normal;font-variant-east-asian:normal;text-align:center;text-anchor:middle"
           id="path2732" />
        <path
           d="m 144.53007,28.812189 v -0.512233 h 0.58844 v -2.785531 h -0.58844 v -0.512233 h 1.1938 v 3.809997 z"
           style="font-style:normal;font-variant:normal;font-weight:bold;font-stretch:normal;font-size:4.23333px;font-family:'NVIDIA Sans';-inkscape-font-specification:'NVIDIA Sans, Bold';font-variant-ligatures:normal;font-variant-caps:normal;font-variant-numeric:normal;font-variant-east-asian:normal"
           id="path2734" />
      </g>
    </g>
    <g
       id="g924"
       transform="matrix(0.87105632,0,0,1,44.135929,-15.931364)">
      <ellipse
         style="fill:none;stroke:#000000;stroke-width:0.264583;stroke-miterlimit:4;stroke-dasharray:none;stroke-opacity:1"
         id="path10-6"
         cx="52.664658"
         cy="88.605118"
         rx="38.484512"
         ry="13.968424" />
      <g
         aria-label="SomeOperator(...)
"
         transform="translate(-94.444205,66.809332)"
         id="text849-7"
         style="font-style:normal;font-variant:normal;font-weight:bold;font-stretch:normal;font-size:4.23333px;line-height:1.25;font-family:'NVIDIA Sans';-inkscape-font-specification:'NVIDIA Sans, Bold';font-variant-ligatures:normal;font-variant-caps:normal;font-variant-numeric:normal;font-variant-east-asian:normal;white-space:pre;shape-inside:url(#rect851-7)">
        <path
           d="m 132.19981,23.02946 q -0.9271,0 -1.1811,-0.656166 l 0.5207,-0.2667 q 0.14817,0.3937 0.6604,0.3937 h 0.055 q 0.53764,0 0.53764,-0.347133 v -0.04233 q 0,-0.135467 -0.0931,-0.232834 -0.0931,-0.09737 -0.2667,-0.118533 l -0.46143,-0.05503 q -0.42333,-0.0508 -0.64347,-0.262467 -0.22013,-0.215899 -0.22013,-0.584199 v -0.0508 q 0,-0.262466 0.13547,-0.452966 0.13546,-0.194733 0.381,-0.300567 0.24976,-0.105833 0.5842,-0.105833 h 0.0635 q 0.4064,0 0.6858,0.1651 0.2794,0.160866 0.40216,0.4699 l -0.54186,0.228599 q -0.1143,-0.334433 -0.55034,-0.334433 h -0.055 q -0.2286,0 -0.35983,0.0889 -0.127,0.0889 -0.127,0.237067 v 0.04233 q 0,0.258233 0.3556,0.3048 l 0.46143,0.05503 q 0.4318,0.0508 0.6477,0.283633 0.22013,0.232833 0.22013,0.605366 v 0.0508 q 0,0.423333 -0.29633,0.656166 -0.29633,0.2286 -0.8509,0.2286 z"
           style="font-style:normal;font-variant:normal;font-weight:bold;font-stretch:normal;font-size:4.23333px;font-family:'NVIDIA Sans';-inkscape-font-specification:'NVIDIA Sans, Bold';font-variant-ligatures:normal;font-variant-caps:normal;font-variant-numeric:normal;font-variant-east-asian:normal;text-align:center;text-anchor:middle"
           id="path2746" />
        <path
           d="m 134.76097,23.02946 q -0.3048,0 -0.5461,-0.127 -0.2413,-0.127 -0.381,-0.368299 -0.1397,-0.245534 -0.1397,-0.592667 v -0.126999 q 0,-0.351367 0.1397,-0.592667 0.1397,-0.241299 0.381,-0.368299 0.2413,-0.127 0.5461,-0.127 h 0.0296 q 0.3048,0 0.5461,0.127 0.2413,0.127 0.381,0.368299 0.1397,0.2413 0.1397,0.592667 v 0.126999 q 0,0.347133 -0.1397,0.592667 -0.1397,0.241299 -0.381,0.368299 -0.2413,0.127 -0.5461,0.127 z m 0,-0.507999 h 0.0296 q 0.20743,0 0.33866,-0.135467 0.13547,-0.135467 0.13547,-0.4318 v -0.152399 q 0,-0.296334 -0.13547,-0.4318 -0.13123,-0.135467 -0.33866,-0.135467 h -0.0296 q -0.20743,0 -0.3429,0.135467 -0.13123,0.135466 -0.13123,0.4318 v 0.152399 q 0,0.296333 0.13123,0.4318 0.13547,0.135467 0.3429,0.135467 z"
           style="font-style:normal;font-variant:normal;font-weight:bold;font-stretch:normal;font-size:4.23333px;font-family:'NVIDIA Sans';-inkscape-font-specification:'NVIDIA Sans, Bold';font-variant-ligatures:normal;font-variant-caps:normal;font-variant-numeric:normal;font-variant-east-asian:normal;text-align:center;text-anchor:middle"
           id="path2748" />
        <path
           d="m 136.29344,22.970194 v -2.184399 h 0.51646 v 0.2667 q 0.10584,-0.156633 0.2667,-0.2413 0.16087,-0.08467 0.36407,-0.08467 h 0.0423 q 0.4572,0 0.65617,0.355599 0.11007,-0.169333 0.2794,-0.262466 0.17357,-0.09313 0.3937,-0.09313 h 0.0423 q 0.3556,0 0.56304,0.232833 0.21166,0.2286 0.21166,0.656166 v 1.354666 h -0.59266 V 21.69596 q 0,-0.220133 -0.0847,-0.338666 -0.0804,-0.122767 -0.25823,-0.122767 h -0.0339 q -0.14393,0 -0.27517,0.127 -0.127,0.122767 -0.127,0.397933 v 1.210733 h -0.59266 V 21.69596 q 0,-0.220133 -0.0847,-0.338666 -0.0804,-0.122767 -0.25823,-0.122767 h -0.0339 q -0.14393,0 -0.27517,0.127 -0.127,0.122767 -0.127,0.397933 v 1.210733 z"
           style="font-style:normal;font-variant:normal;font-weight:bold;font-stretch:normal;font-size:4.23333px;font-family:'NVIDIA Sans';-inkscape-font-specification:'NVIDIA Sans, Bold';font-variant-ligatures:normal;font-variant-caps:normal;font-variant-numeric:normal;font-variant-east-asian:normal;text-align:center;text-anchor:middle"
           id="path2750" />
        <path
           d="m 141.0898,23.02946 q -0.49954,0 -0.7747,-0.283633 -0.27517,-0.283633 -0.27517,-0.800099 v -0.127 q 0,-0.516466 0.2794,-0.804333 0.2794,-0.287866 0.77047,-0.287866 h 0.0339 q 0.46567,0 0.7239,0.283633 0.26247,0.2794 0.26247,0.774699 v 0.2667 h -1.4859 q 0.0296,0.503766 0.46567,0.503766 h 0.0593 q 0.33443,0 0.4699,-0.224366 l 0.42757,0.283633 q -0.11854,0.194733 -0.3556,0.3048 -0.23284,0.110066 -0.53764,0.110066 z m -0.46144,-1.375832 h 0.90593 v -0.0127 q 0,-0.440266 -0.41063,-0.440266 h -0.0339 q -0.4064,0 -0.46144,0.452966 z"
           style="font-style:normal;font-variant:normal;font-weight:bold;font-stretch:normal;font-size:4.23333px;font-family:'NVIDIA Sans';-inkscape-font-specification:'NVIDIA Sans, Bold';font-variant-ligatures:normal;font-variant-caps:normal;font-variant-numeric:normal;font-variant-east-asian:normal;text-align:center;text-anchor:middle"
           id="path2752" />
        <path
           d="m 143.84569,23.02946 q -0.4318,0 -0.74083,-0.1778 -0.3048,-0.1778 -0.4699,-0.503766 -0.16087,-0.325966 -0.16087,-0.774699 v -0.169333 q 0,-0.448733 0.16087,-0.7747 0.1651,-0.325966 0.4699,-0.503766 0.30903,-0.1778 0.74083,-0.1778 h 0.0423 q 0.4318,0 0.7366,0.1778 0.30903,0.1778 0.4699,0.503766 0.1651,0.325967 0.1651,0.7747 v 0.169333 q 0,0.448733 -0.1651,0.774699 -0.16087,0.325966 -0.4699,0.503766 -0.3048,0.1778 -0.7366,0.1778 z m 0.004,-0.541866 h 0.0339 q 0.34713,0 0.55033,-0.224367 0.20743,-0.224366 0.20743,-0.677332 v -0.194733 q 0,-0.452967 -0.20743,-0.677333 -0.2032,-0.224367 -0.55033,-0.224367 h -0.0339 q -0.34713,0 -0.55456,0.224367 -0.2032,0.224366 -0.2032,0.677333 v 0.194733 q 0,0.452966 0.2032,0.677332 0.20743,0.224367 0.55456,0.224367 z"
           style="font-style:normal;font-variant:normal;font-weight:bold;font-stretch:normal;font-size:4.23333px;font-family:'NVIDIA Sans';-inkscape-font-specification:'NVIDIA Sans, Bold';font-variant-ligatures:normal;font-variant-caps:normal;font-variant-numeric:normal;font-variant-east-asian:normal;text-align:center;text-anchor:middle"
           id="path2754" />
        <path
           d="m 145.75492,23.816859 v -3.031064 h 0.51646 v 0.270933 q 0.22437,-0.330199 0.69004,-0.330199 h 0.0296 q 0.2667,0 0.4699,0.127 0.20743,0.122766 0.32173,0.368299 0.11853,0.2413 0.11853,0.5969 v 0.127 q 0,0.347133 -0.11853,0.592666 -0.1143,0.2413 -0.32173,0.3683 -0.2032,0.122766 -0.4699,0.122766 h -0.0296 q -0.3937,0 -0.61384,-0.262466 v 1.049865 z m 1.04563,-1.295398 h 0.0339 q 0.2032,0 0.33866,-0.135467 0.13547,-0.135467 0.13547,-0.436033 v -0.1397 q 0,-0.300566 -0.13547,-0.436033 -0.13546,-0.1397 -0.33866,-0.1397 h -0.0339 q -0.11007,0 -0.22013,0.05927 -0.10584,0.05503 -0.17357,0.182033 -0.0677,0.122767 -0.0677,0.334433 v 0.135467 q 0,0.207433 0.0677,0.334433 0.072,0.127 0.1778,0.186266 0.11007,0.05503 0.2159,0.05503 z"
           style="font-style:normal;font-variant:normal;font-weight:bold;font-stretch:normal;font-size:4.23333px;font-family:'NVIDIA Sans';-inkscape-font-specification:'NVIDIA Sans, Bold';font-variant-ligatures:normal;font-variant-caps:normal;font-variant-numeric:normal;font-variant-east-asian:normal;text-align:center;text-anchor:middle"
           id="path2756" />
        <path
           d="m 149.27281,23.02946 q -0.49954,0 -0.7747,-0.283633 -0.27517,-0.283633 -0.27517,-0.800099 v -0.127 q 0,-0.516466 0.2794,-0.804333 0.2794,-0.287866 0.77047,-0.287866 h 0.0339 q 0.46567,0 0.7239,0.283633 0.26247,0.2794 0.26247,0.774699 v 0.2667 h -1.4859 q 0.0296,0.503766 0.46567,0.503766 h 0.0593 q 0.33444,0 0.4699,-0.224366 l 0.42757,0.283633 q -0.11853,0.194733 -0.3556,0.3048 -0.23283,0.110066 -0.53763,0.110066 z m -0.46144,-1.375832 h 0.90594 v -0.0127 q 0,-0.440266 -0.41064,-0.440266 h -0.0339 q -0.4064,0 -0.46144,0.452966 z"
           style="font-style:normal;font-variant:normal;font-weight:bold;font-stretch:normal;font-size:4.23333px;font-family:'NVIDIA Sans';-inkscape-font-specification:'NVIDIA Sans, Bold';font-variant-ligatures:normal;font-variant-caps:normal;font-variant-numeric:normal;font-variant-east-asian:normal;text-align:center;text-anchor:middle"
           id="path2758" />
        <path
           d="m 150.71214,22.970194 v -2.184399 h 0.51646 v 0.372533 q 0.0889,-0.190499 0.22437,-0.292099 0.13547,-0.105834 0.3683,-0.105834 h 0.23283 v 0.5461 h -0.21166 q -0.127,0 -0.24977,0.0508 -0.12277,0.0508 -0.20743,0.1778 -0.0804,0.122766 -0.0804,0.342899 v 1.0922 z"
           style="font-style:normal;font-variant:normal;font-weight:bold;font-stretch:normal;font-size:4.23333px;font-family:'NVIDIA Sans';-inkscape-font-specification:'NVIDIA Sans, Bold';font-variant-ligatures:normal;font-variant-caps:normal;font-variant-numeric:normal;font-variant-east-asian:normal;text-align:center;text-anchor:middle"
           id="path2760" />
        <path
           d="m 152.9939,23.02946 q -0.35137,0 -0.5461,-0.173566 -0.1905,-0.173567 -0.1905,-0.486833 0,-0.287867 0.17356,-0.461433 0.1778,-0.173567 0.51224,-0.2159 l 0.6858,-0.0889 v -0.01693 q 0,-0.385233 -0.35137,-0.385233 h -0.0423 q -0.15664,0 -0.26247,0.05927 -0.10583,0.05503 -0.1778,0.198967 l -0.45297,-0.237067 q 0.0974,-0.224366 0.32597,-0.359833 0.23283,-0.135466 0.56303,-0.135466 h 0.0635 q 0.9271,0 0.9271,0.867832 v 1.375833 h -0.51646 v -0.275167 q -0.1016,0.156633 -0.28364,0.245533 -0.1778,0.0889 -0.4064,0.0889 z m 0.635,-1.028699 -0.45297,0.0635 q -0.19473,0.02963 -0.27093,0.08467 -0.0762,0.0508 -0.0762,0.169333 0,0.1143 0.0847,0.182033 0.0889,0.0635 0.23284,0.0635 h 0.0339 q 0.21167,0 0.3302,-0.122767 0.11854,-0.122766 0.11854,-0.334433 z"
           style="font-style:normal;font-variant:normal;font-weight:bold;font-stretch:normal;font-size:4.23333px;font-family:'NVIDIA Sans';-inkscape-font-specification:'NVIDIA Sans, Bold';font-variant-ligatures:normal;font-variant-caps:normal;font-variant-numeric:normal;font-variant-east-asian:normal;text-align:center;text-anchor:middle"
           id="path2762" />
        <path
           d="m 155.73286,22.995594 q -0.45297,0 -0.64347,-0.194734 -0.18627,-0.194733 -0.18627,-0.579966 v -0.939799 h -0.4572 v -0.4953 h 0.4572 v -0.622299 h 0.59267 v 0.622299 h 0.6731 l -0.072,0.4953 h -0.60113 v 0.918633 q 0,0.156633 0.0762,0.228599 0.0804,0.06773 0.2159,0.06773 h 0.381 v 0.499533 z"
           style="font-style:normal;font-variant:normal;font-weight:bold;font-stretch:normal;font-size:4.23333px;font-family:'NVIDIA Sans';-inkscape-font-specification:'NVIDIA Sans, Bold';font-variant-ligatures:normal;font-variant-caps:normal;font-variant-numeric:normal;font-variant-east-asian:normal;text-align:center;text-anchor:middle"
           id="path2764" />
        <path
           d="m 157.53202,23.02946 q -0.3048,0 -0.5461,-0.127 -0.2413,-0.127 -0.381,-0.368299 -0.1397,-0.245534 -0.1397,-0.592667 v -0.126999 q 0,-0.351367 0.1397,-0.592667 0.1397,-0.241299 0.381,-0.368299 0.2413,-0.127 0.5461,-0.127 h 0.0296 q 0.3048,0 0.5461,0.127 0.2413,0.127 0.381,0.368299 0.1397,0.2413 0.1397,0.592667 v 0.126999 q 0,0.347133 -0.1397,0.592667 -0.1397,0.241299 -0.381,0.368299 -0.2413,0.127 -0.5461,0.127 z m 0,-0.507999 h 0.0296 q 0.20744,0 0.33867,-0.135467 0.13547,-0.135467 0.13547,-0.4318 v -0.152399 q 0,-0.296334 -0.13547,-0.4318 -0.13123,-0.135467 -0.33867,-0.135467 h -0.0296 q -0.20743,0 -0.3429,0.135467 -0.13123,0.135466 -0.13123,0.4318 v 0.152399 q 0,0.296333 0.13123,0.4318 0.13547,0.135467 0.3429,0.135467 z"
           style="font-style:normal;font-variant:normal;font-weight:bold;font-stretch:normal;font-size:4.23333px;font-family:'NVIDIA Sans';-inkscape-font-specification:'NVIDIA Sans, Bold';font-variant-ligatures:normal;font-variant-caps:normal;font-variant-numeric:normal;font-variant-east-asian:normal;text-align:center;text-anchor:middle"
           id="path2766" />
        <path
           d="m 159.06448,22.970194 v -2.184399 h 0.51647 v 0.372533 q 0.0889,-0.190499 0.22437,-0.292099 0.13546,-0.105834 0.3683,-0.105834 h 0.23283 v 0.5461 h -0.21167 q -0.127,0 -0.24976,0.0508 -0.12277,0.0508 -0.20744,0.1778 -0.0804,0.122766 -0.0804,0.342899 v 1.0922 z"
           style="font-style:normal;font-variant:normal;font-weight:bold;font-stretch:normal;font-size:4.23333px;font-family:'NVIDIA Sans';-inkscape-font-specification:'NVIDIA Sans, Bold';font-variant-ligatures:normal;font-variant-caps:normal;font-variant-numeric:normal;font-variant-east-asian:normal;text-align:center;text-anchor:middle"
           id="path2768" />
        <path
           d="m 161.36742,23.520526 q -0.56727,-0.850899 -0.56727,-1.786465 v -0.245533 q 0,-0.461433 0.14393,-0.905932 0.14394,-0.448733 0.42334,-0.872066 h 0.58419 q -0.25823,0.423333 -0.3937,0.876299 -0.13546,0.452966 -0.13546,0.901699 v 0.245533 q 0,0.448733 0.13546,0.910166 0.13547,0.4572 0.3937,0.876299 z"
           style="font-style:normal;font-variant:normal;font-weight:bold;font-stretch:normal;font-size:4.23333px;font-family:'NVIDIA Sans';-inkscape-font-specification:'NVIDIA Sans, Bold';font-variant-ligatures:normal;font-variant-caps:normal;font-variant-numeric:normal;font-variant-east-asian:normal;text-align:center;text-anchor:middle"
           id="path2770" />
        <path
           d="m 162.22254,22.970194 v -0.643467 h 0.6223 v 0.643467 z"
           style="font-style:normal;font-variant:normal;font-weight:bold;font-stretch:normal;font-size:4.23333px;font-family:'NVIDIA Sans';-inkscape-font-specification:'NVIDIA Sans, Bold';font-variant-ligatures:normal;font-variant-caps:normal;font-variant-numeric:normal;font-variant-east-asian:normal;text-align:center;text-anchor:middle"
           id="path2772" />
        <path
           d="m 163.30204,22.970194 v -0.643467 h 0.6223 v 0.643467 z"
           style="font-style:normal;font-variant:normal;font-weight:bold;font-stretch:normal;font-size:4.23333px;font-family:'NVIDIA Sans';-inkscape-font-specification:'NVIDIA Sans, Bold';font-variant-ligatures:normal;font-variant-caps:normal;font-variant-numeric:normal;font-variant-east-asian:normal;text-align:center;text-anchor:middle"
           id="path2774" />
        <path
           d="m 164.38153,22.970194 v -0.643467 h 0.6223 v 0.643467 z"
           style="font-style:normal;font-variant:normal;font-weight:bold;font-stretch:normal;font-size:4.23333px;font-family:'NVIDIA Sans';-inkscape-font-specification:'NVIDIA Sans, Bold';font-variant-ligatures:normal;font-variant-caps:normal;font-variant-numeric:normal;font-variant-east-asian:normal;text-align:center;text-anchor:middle"
           id="path2776" />
        <path
           d="m 165.27476,23.520526 q 0.25824,-0.419099 0.3937,-0.876299 0.13547,-0.461433 0.13547,-0.910166 v -0.245533 q 0,-0.448733 -0.13547,-0.901699 -0.13123,-0.452966 -0.3937,-0.876299 h 0.5842 q 0.2794,0.423333 0.42334,0.872066 0.14393,0.444499 0.14393,0.905932 v 0.245533 q 0,0.935566 -0.56727,1.786465 z"
           style="font-style:normal;font-variant:normal;font-weight:bold;font-stretch:normal;font-size:4.23333px;font-family:'NVIDIA Sans';-inkscape-font-specification:'NVIDIA Sans, Bold';font-variant-ligatures:normal;font-variant-caps:normal;font-variant-numeric:normal;font-variant-east-asian:normal;text-align:center;text-anchor:middle"
           id="path2778" />
      </g>
      <rect
         style="fill:none;fill-opacity:1;stroke:#000000;stroke-width:0.289836;stroke-miterlimit:4;stroke-dasharray:none;stroke-opacity:1"
         id="rect2673"
         width="121.70833"
         height="95.25"
         x="-20.294436"
         y="10.639696" />
    </g>
    <g
       aria-label="Node"
       id="text2348"
       style="font-style:normal;font-variant:normal;font-weight:bold;font-stretch:normal;font-size:4.23333px;line-height:1.25;font-family:'NVIDIA Sans';-inkscape-font-specification:'NVIDIA Sans, Bold';font-variant-ligatures:normal;font-variant-caps:normal;font-variant-numeric:normal;font-variant-east-asian:normal;stroke-width:0.264583"
       transform="translate(7.9375004)">
      <path
         d="m 24.163868,30.18646 v -2.96333 h 0.550333 l 1.341966,1.934631 V 27.22313 H 26.6446 v 2.96333 h -0.550333 l -1.341966,-1.934631 v 1.934631 z"
         style="font-style:normal;font-variant:normal;font-weight:bold;font-stretch:normal;font-size:4.23333px;font-family:'NVIDIA Sans';-inkscape-font-specification:'NVIDIA Sans, Bold';font-variant-ligatures:normal;font-variant-caps:normal;font-variant-numeric:normal;font-variant-east-asian:normal;stroke-width:0.264583"
         id="path2675" />
      <path
         d="m 28.223627,30.245727 q -0.3048,0 -0.5461,-0.127 -0.2413,-0.127 -0.380999,-0.368299 -0.1397,-0.245534 -0.1397,-0.592667 v -0.127 q 0,-0.351366 0.1397,-0.592666 0.139699,-0.241299 0.380999,-0.368299 0.2413,-0.127 0.5461,-0.127 h 0.02963 q 0.3048,0 0.5461,0.127 0.241299,0.127 0.380999,0.368299 0.1397,0.2413 0.1397,0.592666 v 0.127 q 0,0.347133 -0.1397,0.592667 -0.1397,0.241299 -0.380999,0.368299 -0.2413,0.127 -0.5461,0.127 z m 0,-0.507999 h 0.02963 q 0.207433,0 0.338667,-0.135467 0.135466,-0.135467 0.135466,-0.4318 v -0.1524 q 0,-0.296333 -0.135466,-0.431799 -0.131234,-0.135467 -0.338667,-0.135467 h -0.02963 q -0.207433,0 -0.3429,0.135467 -0.131233,0.135466 -0.131233,0.431799 v 0.1524 q 0,0.296333 0.131233,0.4318 0.135467,0.135467 0.3429,0.135467 z"
         style="font-style:normal;font-variant:normal;font-weight:bold;font-stretch:normal;font-size:4.23333px;font-family:'NVIDIA Sans';-inkscape-font-specification:'NVIDIA Sans, Bold';font-variant-ligatures:normal;font-variant-caps:normal;font-variant-numeric:normal;font-variant-east-asian:normal;stroke-width:0.264583"
         id="path2677" />
      <path
         d="m 30.551958,30.245727 q -0.262466,0 -0.4699,-0.122766 -0.207433,-0.127 -0.325966,-0.372533 -0.1143,-0.245534 -0.1143,-0.5969 v -0.127 q 0,-0.351366 0.1143,-0.592666 0.118533,-0.2413 0.325966,-0.364066 0.207434,-0.127 0.4699,-0.127 h 0.02963 q 0.3937,0 0.613833,0.262466 V 27.09613 h 0.592666 v 3.09033 h -0.516466 v -0.270933 q -0.224366,0.3302 -0.690033,0.3302 z m 0.156633,-0.507999 h 0.03387 q 0.1143,0 0.220133,-0.05503 0.105833,-0.05927 0.173567,-0.186266 0.06773,-0.127 0.06773,-0.334433 v -0.135467 q 0,-0.207433 -0.07197,-0.334433 -0.06773,-0.127 -0.173566,-0.182033 -0.105834,-0.05927 -0.2159,-0.05927 h -0.03387 q -0.2032,0 -0.338666,0.135467 -0.135467,0.135466 -0.135467,0.436033 v 0.1397 q 0,0.300566 0.135467,0.440266 0.135466,0.135467 0.338666,0.135467 z"
         style="font-style:normal;font-variant:normal;font-weight:bold;font-stretch:normal;font-size:4.23333px;font-family:'NVIDIA Sans';-inkscape-font-specification:'NVIDIA Sans, Bold';font-variant-ligatures:normal;font-variant-caps:normal;font-variant-numeric:normal;font-variant-east-asian:normal;stroke-width:0.264583"
         id="path2679" />
      <path
         d="m 33.273984,30.245727 q -0.499533,0 -0.7747,-0.283633 -0.275166,-0.283633 -0.275166,-0.800099 v -0.127 q 0,-0.516466 0.2794,-0.804333 0.2794,-0.287866 0.770466,-0.287866 h 0.03387 q 0.465667,0 0.7239,0.283633 0.262466,0.2794 0.262466,0.774699 v 0.2667 h -1.485898 q 0.02963,0.503766 0.465666,0.503766 h 0.05927 q 0.334433,0 0.4699,-0.224366 l 0.427566,0.283633 q -0.118533,0.194733 -0.355599,0.3048 -0.232833,0.110066 -0.537633,0.110066 z m -0.461433,-1.375832 h 0.905932 v -0.0127 q 0,-0.440266 -0.410633,-0.440266 h -0.03387 q -0.4064,0 -0.461433,0.452966 z"
         style="font-style:normal;font-variant:normal;font-weight:bold;font-stretch:normal;font-size:4.23333px;font-family:'NVIDIA Sans';-inkscape-font-specification:'NVIDIA Sans, Bold';font-variant-ligatures:normal;font-variant-caps:normal;font-variant-numeric:normal;font-variant-east-asian:normal;stroke-width:0.264583"
         id="path2681" />
    </g>
    <g
       aria-label="Node"
       id="text2348-8"
       style="font-style:normal;font-variant:normal;font-weight:bold;font-stretch:normal;font-size:4.23333px;line-height:1.25;font-family:'NVIDIA Sans';-inkscape-font-specification:'NVIDIA Sans, Bold';font-variant-ligatures:normal;font-variant-caps:normal;font-variant-numeric:normal;font-variant-east-asian:normal;stroke-width:0.264583"
       transform="translate(7.9375004)">
      <path
         d="m 24.163868,74.694458 v -2.963331 h 0.550333 l 1.341966,1.934632 V 71.731127 H 26.6446 v 2.963331 h -0.550333 l -1.341966,-1.934632 v 1.934632 z"
         style="font-style:normal;font-variant:normal;font-weight:bold;font-stretch:normal;font-size:4.23333px;font-family:'NVIDIA Sans';-inkscape-font-specification:'NVIDIA Sans, Bold';font-variant-ligatures:normal;font-variant-caps:normal;font-variant-numeric:normal;font-variant-east-asian:normal;stroke-width:0.264583"
         id="path2737" />
      <path
         d="m 28.223627,74.753725 q -0.3048,0 -0.5461,-0.127 -0.2413,-0.127 -0.380999,-0.3683 -0.1397,-0.245533 -0.1397,-0.592666 v -0.127 q 0,-0.351366 0.1397,-0.592666 0.139699,-0.2413 0.380999,-0.3683 0.2413,-0.127 0.5461,-0.127 h 0.02963 q 0.3048,0 0.5461,0.127 0.241299,0.127 0.380999,0.3683 0.1397,0.2413 0.1397,0.592666 v 0.127 q 0,0.347133 -0.1397,0.592666 -0.1397,0.2413 -0.380999,0.3683 -0.2413,0.127 -0.5461,0.127 z m 0,-0.508 h 0.02963 q 0.207433,0 0.338667,-0.135467 0.135466,-0.135466 0.135466,-0.431799 v -0.1524 q 0,-0.296333 -0.135466,-0.4318 -0.131234,-0.135466 -0.338667,-0.135466 h -0.02963 q -0.207433,0 -0.3429,0.135466 -0.131233,0.135467 -0.131233,0.4318 v 0.1524 q 0,0.296333 0.131233,0.431799 0.135467,0.135467 0.3429,0.135467 z"
         style="font-style:normal;font-variant:normal;font-weight:bold;font-stretch:normal;font-size:4.23333px;font-family:'NVIDIA Sans';-inkscape-font-specification:'NVIDIA Sans, Bold';font-variant-ligatures:normal;font-variant-caps:normal;font-variant-numeric:normal;font-variant-east-asian:normal;stroke-width:0.264583"
         id="path2739" />
      <path
         d="m 30.551958,74.753725 q -0.262466,0 -0.4699,-0.122767 -0.207433,-0.127 -0.325966,-0.372533 -0.1143,-0.245533 -0.1143,-0.596899 v -0.127 q 0,-0.351367 0.1143,-0.592667 0.118533,-0.241299 0.325966,-0.364066 0.207434,-0.127 0.4699,-0.127 h 0.02963 q 0.3937,0 0.613833,0.262467 v -1.109133 h 0.592666 v 3.090331 h -0.516466 v -0.270933 q -0.224366,0.3302 -0.690033,0.3302 z m 0.156633,-0.508 h 0.03387 q 0.1143,0 0.220133,-0.05503 0.105833,-0.05927 0.173567,-0.186267 0.06773,-0.127 0.06773,-0.334433 v -0.135466 q 0,-0.207434 -0.07197,-0.334433 -0.06773,-0.127 -0.173566,-0.182034 -0.105834,-0.05927 -0.2159,-0.05927 h -0.03387 q -0.2032,0 -0.338666,0.135466 -0.135467,0.135467 -0.135467,0.436033 v 0.1397 q 0,0.300567 0.135467,0.440266 0.135466,0.135467 0.338666,0.135467 z"
         style="font-style:normal;font-variant:normal;font-weight:bold;font-stretch:normal;font-size:4.23333px;font-family:'NVIDIA Sans';-inkscape-font-specification:'NVIDIA Sans, Bold';font-variant-ligatures:normal;font-variant-caps:normal;font-variant-numeric:normal;font-variant-east-asian:normal;stroke-width:0.264583"
         id="path2741" />
      <path
         d="m 33.273984,74.753725 q -0.499533,0 -0.7747,-0.283633 -0.275166,-0.283634 -0.275166,-0.8001 v -0.127 q 0,-0.516466 0.2794,-0.804332 0.2794,-0.287867 0.770466,-0.287867 h 0.03387 q 0.465667,0 0.7239,0.283633 0.262466,0.2794 0.262466,0.7747 v 0.266699 h -1.485898 q 0.02963,0.503767 0.465666,0.503767 h 0.05927 q 0.334433,0 0.4699,-0.224367 l 0.427566,0.283633 q -0.118533,0.194733 -0.355599,0.3048 -0.232833,0.110067 -0.537633,0.110067 z m -0.461433,-1.375833 h 0.905932 v -0.0127 q 0,-0.440266 -0.410633,-0.440266 h -0.03387 q -0.4064,0 -0.461433,0.452966 z"
         style="font-style:normal;font-variant:normal;font-weight:bold;font-stretch:normal;font-size:4.23333px;font-family:'NVIDIA Sans';-inkscape-font-specification:'NVIDIA Sans, Bold';font-variant-ligatures:normal;font-variant-caps:normal;font-variant-numeric:normal;font-variant-east-asian:normal;stroke-width:0.264583"
         id="path2743" />
    </g>
    <path
       style="fill:none;stroke:#000000;stroke-width:0.264583;stroke-linecap:butt;stroke-linejoin:miter;stroke-miterlimit:4;stroke-dasharray:none;stroke-opacity:1;marker-end:url(#marker2120)"
       d="M 89.958331,42.333332 V 58.208331"
       id="path2431" />
    <text
       xml:space="preserve"
       style="font-style:normal;font-variant:normal;font-weight:bold;font-stretch:normal;font-size:4.23333px;line-height:1.25;font-family:'NVIDIA Sans';-inkscape-font-specification:'NVIDIA Sans, Bold';font-variant-ligatures:normal;font-variant-caps:normal;font-variant-numeric:normal;font-variant-east-asian:normal;stroke-width:0.264583"
       x="74.083344"
       y="2.6458325"
       id="text2819"><tspan
         sodipodi:role="line"
         id="tspan2817"
         x="74.083344"
         y="2.6458325"
         style="font-style:normal;font-variant:normal;font-weight:bold;font-stretch:normal;font-size:4.23333px;font-family:'NVIDIA Sans';-inkscape-font-specification:'NVIDIA Sans, Bold';font-variant-ligatures:normal;font-variant-caps:normal;font-variant-numeric:normal;font-variant-east-asian:normal;stroke-width:0.264583">Graph</tspan></text>
  </g>
</svg>
