<?xml version="1.0" encoding="UTF-8" standalone="no"?>
<!DOCTYPE svg PUBLIC "-//W3C//DTD SVG 1.1//EN"
 "http://www.w3.org/Graphics/SVG/1.1/DTD/svg11.dtd">
<!-- Generated by graphviz version 2.43.0 (0)
 -->
<!-- Title: %3 Pages: 1 -->
<svg width="708pt" height="548pt"
 viewBox="0.00 0.00 708.22 548.00" xmlns="http://www.w3.org/2000/svg" xmlns:xlink="http://www.w3.org/1999/xlink">
<g id="graph0" class="graph" transform="scale(1 1) rotate(0) translate(4 544)">
<title>%3</title>
<polygon fill="white" stroke="transparent" points="-4,4 -4,-544 704.22,-544 704.22,4 -4,4"/>
<!-- 0 -->
<g id="node1" class="node">
<title>0</title>
<ellipse fill="none" stroke="black" cx="468.84" cy="-306" rx="66.89" ry="18"/>
<text text-anchor="middle" x="468.84" y="-302.3" font-family="Times,serif" font-size="14.00">SelectionOp</text>
</g>
<!-- 7 -->
<g id="node13" class="node">
<title>7</title>
<ellipse fill="none" stroke="black" cx="468.84" cy="-234" rx="231.26" ry="18"/>
<text text-anchor="middle" x="468.84" y="-230.3" font-family="Times,serif" font-size="14.00">LambdaOp(lambda col: (col &gt; 3).astype(&quot;int8&quot;))</text>
</g>
<!-- 0&#45;&gt;7 -->
<g id="edge9" class="edge">
<title>0&#45;&gt;7</title>
<path fill="none" stroke="black" d="M468.84,-287.7C468.84,-279.98 468.84,-270.71 468.84,-262.11"/>
<polygon fill="black" stroke="black" points="472.34,-262.1 468.84,-252.1 465.34,-262.1 472.34,-262.1"/>
</g>
<!-- 0_selector -->
<g id="node2" class="node">
<title>0_selector</title>
<ellipse fill="none" stroke="black" cx="468.84" cy="-378" rx="50.89" ry="18"/>
<text text-anchor="middle" x="468.84" y="-374.3" font-family="Times,serif" font-size="14.00">[&#39;rating&#39;]</text>
</g>
<!-- 0_selector&#45;&gt;0 -->
<g id="edge1" class="edge">
<title>0_selector&#45;&gt;0</title>
<path fill="none" stroke="black" d="M468.84,-359.7C468.84,-351.98 468.84,-342.71 468.84,-334.11"/>
<polygon fill="black" stroke="black" points="472.34,-334.1 468.84,-324.1 465.34,-334.1 472.34,-334.1"/>
</g>
<!-- 1 -->
<g id="node3" class="node">
<title>1</title>
<ellipse fill="none" stroke="black" cx="245.84" cy="-162" rx="59.59" ry="18"/>
<text text-anchor="middle" x="245.84" y="-158.3" font-family="Times,serif" font-size="14.00">Categorify</text>
</g>
<!-- 2 -->
<g id="node5" class="node">
<title>2</title>
<ellipse fill="none" stroke="black" cx="309.84" cy="-90" rx="27" ry="18"/>
<text text-anchor="middle" x="309.84" y="-86.3" font-family="Times,serif" font-size="14.00">+</text>
</g>
<!-- 1&#45;&gt;2 -->
<g id="edge3" class="edge">
<title>1&#45;&gt;2</title>
<path fill="none" stroke="black" d="M261.01,-144.41C269.41,-135.22 279.97,-123.67 289.13,-113.66"/>
<polygon fill="black" stroke="black" points="291.93,-115.78 296.09,-106.04 286.76,-111.06 291.93,-115.78"/>
</g>
<!-- 3 -->
<g id="node4" class="node">
<title>3</title>
<ellipse fill="none" stroke="black" cx="150.84" cy="-234" rx="68.49" ry="18"/>
<text text-anchor="middle" x="150.84" y="-230.3" font-family="Times,serif" font-size="14.00">JoinExternal</text>
</g>
<!-- 3&#45;&gt;1 -->
<g id="edge2" class="edge">
<title>3&#45;&gt;1</title>
<path fill="none" stroke="black" d="M172.88,-216.76C185.68,-207.33 201.98,-195.32 215.93,-185.04"/>
<polygon fill="black" stroke="black" points="218.28,-187.66 224.26,-178.91 214.13,-182.02 218.28,-187.66"/>
</g>
<!-- 11 -->
<g id="node15" class="node">
<title>11</title>
<ellipse fill="none" stroke="black" cx="309.84" cy="-18" rx="62.29" ry="18"/>
<text text-anchor="middle" x="309.84" y="-14.3" font-family="Times,serif" font-size="14.00">output cols</text>
</g>
<!-- 2&#45;&gt;11 -->
<g id="edge14" class="edge">
<title>2&#45;&gt;11</title>
<path fill="none" stroke="black" d="M309.84,-71.7C309.84,-63.98 309.84,-54.71 309.84,-46.11"/>
<polygon fill="black" stroke="black" points="313.34,-46.1 309.84,-36.1 306.34,-46.1 313.34,-46.1"/>
</g>
<!-- 10 -->
<g id="node6" class="node">
<title>10</title>
<ellipse fill="none" stroke="black" cx="420.84" cy="-162" rx="50.09" ry="18"/>
<text text-anchor="middle" x="420.84" y="-158.3" font-family="Times,serif" font-size="14.00">AddTags</text>
</g>
<!-- 10&#45;&gt;2 -->
<g id="edge4" class="edge">
<title>10&#45;&gt;2</title>
<path fill="none" stroke="black" d="M397.03,-145.98C379.51,-134.94 355.66,-119.89 337.33,-108.34"/>
<polygon fill="black" stroke="black" points="339.16,-105.35 328.83,-102.97 335.42,-111.27 339.16,-105.35"/>
</g>
<!-- 9 -->
<g id="node7" class="node">
<title>9</title>
<ellipse fill="none" stroke="black" cx="150.84" cy="-306" rx="27" ry="18"/>
<text text-anchor="middle" x="150.84" y="-302.3" font-family="Times,serif" font-size="14.00">+</text>
</g>
<!-- 9&#45;&gt;3 -->
<g id="edge5" class="edge">
<title>9&#45;&gt;3</title>
<path fill="none" stroke="black" d="M150.84,-287.7C150.84,-279.98 150.84,-270.71 150.84,-262.11"/>
<polygon fill="black" stroke="black" points="154.34,-262.1 150.84,-252.1 147.34,-262.1 154.34,-262.1"/>
</g>
<!-- 4 -->
<g id="node8" class="node">
<title>4</title>
<ellipse fill="none" stroke="black" cx="70.84" cy="-378" rx="70.69" ry="18"/>
<text text-anchor="middle" x="70.84" y="-374.3" font-family="Times,serif" font-size="14.00">TagAsItemID</text>
</g>
<!-- 4&#45;&gt;9 -->
<g id="edge12" class="edge">
<title>4&#45;&gt;9</title>
<path fill="none" stroke="black" d="M89.8,-360.41C100.99,-350.62 115.25,-338.15 127.17,-327.72"/>
<polygon fill="black" stroke="black" points="129.76,-330.1 134.98,-320.88 125.15,-324.83 129.76,-330.1"/>
</g>
<!-- 6 -->
<g id="node9" class="node">
<title>6</title>
<ellipse fill="none" stroke="black" cx="70.84" cy="-450" rx="66.89" ry="18"/>
<text text-anchor="middle" x="70.84" y="-446.3" font-family="Times,serif" font-size="14.00">SelectionOp</text>
</g>
<!-- 6&#45;&gt;4 -->
<g id="edge6" class="edge">
<title>6&#45;&gt;4</title>
<path fill="none" stroke="black" d="M70.84,-431.7C70.84,-423.98 70.84,-414.71 70.84,-406.11"/>
<polygon fill="black" stroke="black" points="74.34,-406.1 70.84,-396.1 67.34,-406.1 74.34,-406.1"/>
</g>
<!-- 5 -->
<g id="node10" class="node">
<title>5</title>
<ellipse fill="none" stroke="black" cx="230.84" cy="-450" rx="66.89" ry="18"/>
<text text-anchor="middle" x="230.84" y="-446.3" font-family="Times,serif" font-size="14.00">SelectionOp</text>
</g>
<!-- 8 -->
<g id="node14" class="node">
<title>8</title>
<ellipse fill="none" stroke="black" cx="230.84" cy="-378" rx="71.49" ry="18"/>
<text text-anchor="middle" x="230.84" y="-374.3" font-family="Times,serif" font-size="14.00">TagAsUserID</text>
</g>
<!-- 5&#45;&gt;8 -->
<g id="edge10" class="edge">
<title>5&#45;&gt;8</title>
<path fill="none" stroke="black" d="M230.84,-431.7C230.84,-423.98 230.84,-414.71 230.84,-406.11"/>
<polygon fill="black" stroke="black" points="234.34,-406.1 230.84,-396.1 227.34,-406.1 234.34,-406.1"/>
</g>
<!-- 5_selector -->
<g id="node11" class="node">
<title>5_selector</title>
<ellipse fill="none" stroke="black" cx="230.84" cy="-522" rx="51.99" ry="18"/>
<text text-anchor="middle" x="230.84" y="-518.3" font-family="Times,serif" font-size="14.00">[&#39;userId&#39;]</text>
</g>
<!-- 5_selector&#45;&gt;5 -->
<g id="edge7" class="edge">
<title>5_selector&#45;&gt;5</title>
<path fill="none" stroke="black" d="M230.84,-503.7C230.84,-495.98 230.84,-486.71 230.84,-478.11"/>
<polygon fill="black" stroke="black" points="234.34,-478.1 230.84,-468.1 227.34,-478.1 234.34,-478.1"/>
</g>
<!-- 6_selector -->
<g id="node12" class="node">
<title>6_selector</title>
<ellipse fill="none" stroke="black" cx="70.84" cy="-522" rx="59.59" ry="18"/>
<text text-anchor="middle" x="70.84" y="-518.3" font-family="Times,serif" font-size="14.00">[&#39;movieId&#39;]</text>
</g>
<!-- 6_selector&#45;&gt;6 -->
<g id="edge8" class="edge">
<title>6_selector&#45;&gt;6</title>
<path fill="none" stroke="black" d="M70.84,-503.7C70.84,-495.98 70.84,-486.71 70.84,-478.11"/>
<polygon fill="black" stroke="black" points="74.34,-478.1 70.84,-468.1 67.34,-478.1 74.34,-478.1"/>
</g>
<!-- 7&#45;&gt;10 -->
<g id="edge13" class="edge">
<title>7&#45;&gt;10</title>
<path fill="none" stroke="black" d="M456.98,-215.7C451.26,-207.35 444.28,-197.18 438,-188.02"/>
<polygon fill="black" stroke="black" points="440.78,-185.89 432.24,-179.62 435.01,-189.85 440.78,-185.89"/>
</g>
<!-- 8&#45;&gt;9 -->
<g id="edge11" class="edge">
<title>8&#45;&gt;9</title>
<path fill="none" stroke="black" d="M211.88,-360.41C200.7,-350.62 186.44,-338.15 174.52,-327.72"/>
<polygon fill="black" stroke="black" points="176.53,-324.83 166.7,-320.88 171.93,-330.1 176.53,-324.83"/>
</g>
</g>
</svg>