<?xml version="1.0" encoding="UTF-8" standalone="no"?>
<!DOCTYPE svg PUBLIC "-//W3C//DTD SVG 1.1//EN"
 "http://www.w3.org/Graphics/SVG/1.1/DTD/svg11.dtd">
<!-- Generated by graphviz version 2.43.0 (0)
 -->
<!-- Title: %3 Pages: 1 -->
<svg width="723pt" height="404pt"
 viewBox="0.00 0.00 722.52 404.00" xmlns="http://www.w3.org/2000/svg" xmlns:xlink="http://www.w3.org/1999/xlink">
<g id="graph0" class="graph" transform="scale(1 1) rotate(0) translate(4 400)">
<title>%3</title>
<polygon fill="white" stroke="transparent" points="-4,4 -4,-400 718.52,-400 718.52,4 -4,4"/>
<!-- 0 -->
<g id="node1" class="node">
<title>0</title>
<ellipse fill="none" stroke="black" cx="446.09" cy="-162" rx="268.35" ry="18"/>
<text text-anchor="middle" x="446.09" y="-158.3" font-family="Times,serif" font-size="14.00">nvt.ops.LambdaOp(lambda col: (col &gt; 3).astype(&quot;int8&quot;))</text>
</g>
<!-- 4 -->
<g id="node8" class="node">
<title>4</title>
<ellipse fill="none" stroke="black" cx="273.09" cy="-90" rx="27" ry="18"/>
<text text-anchor="middle" x="273.09" y="-86.3" font-family="Times,serif" font-size="14.00">+</text>
</g>
<!-- 0&#45;&gt;4 -->
<g id="edge6" class="edge">
<title>0&#45;&gt;4</title>
<path fill="none" stroke="black" d="M404.21,-144.05C373.62,-131.68 332.77,-115.15 304.85,-103.85"/>
<polygon fill="black" stroke="black" points="306.13,-100.59 295.55,-100.09 303.5,-107.08 306.13,-100.59"/>
</g>
<!-- 2 -->
<g id="node2" class="node">
<title>2</title>
<ellipse fill="none" stroke="black" cx="446.09" cy="-234" rx="66.89" ry="18"/>
<text text-anchor="middle" x="446.09" y="-230.3" font-family="Times,serif" font-size="14.00">SelectionOp</text>
</g>
<!-- 2&#45;&gt;0 -->
<g id="edge1" class="edge">
<title>2&#45;&gt;0</title>
<path fill="none" stroke="black" d="M446.09,-215.7C446.09,-207.98 446.09,-198.71 446.09,-190.11"/>
<polygon fill="black" stroke="black" points="449.59,-190.1 446.09,-180.1 442.59,-190.1 449.59,-190.1"/>
</g>
<!-- 1 -->
<g id="node3" class="node">
<title>1</title>
<ellipse fill="none" stroke="black" cx="100.09" cy="-162" rx="59.59" ry="18"/>
<text text-anchor="middle" x="100.09" y="-158.3" font-family="Times,serif" font-size="14.00">Categorify</text>
</g>
<!-- 1&#45;&gt;4 -->
<g id="edge5" class="edge">
<title>1&#45;&gt;4</title>
<path fill="none" stroke="black" d="M134.27,-147.17C165.37,-134.59 210.92,-116.16 241.26,-103.88"/>
<polygon fill="black" stroke="black" points="242.59,-107.12 250.54,-100.12 239.96,-100.63 242.59,-107.12"/>
</g>
<!-- 5 -->
<g id="node4" class="node">
<title>5</title>
<ellipse fill="none" stroke="black" cx="100.09" cy="-234" rx="68.49" ry="18"/>
<text text-anchor="middle" x="100.09" y="-230.3" font-family="Times,serif" font-size="14.00">JoinExternal</text>
</g>
<!-- 5&#45;&gt;1 -->
<g id="edge2" class="edge">
<title>5&#45;&gt;1</title>
<path fill="none" stroke="black" d="M100.09,-215.7C100.09,-207.98 100.09,-198.71 100.09,-190.11"/>
<polygon fill="black" stroke="black" points="103.59,-190.1 100.09,-180.1 96.59,-190.1 103.59,-190.1"/>
</g>
<!-- 2_selector -->
<g id="node5" class="node">
<title>2_selector</title>
<ellipse fill="none" stroke="black" cx="446.09" cy="-306" rx="50.89" ry="18"/>
<text text-anchor="middle" x="446.09" y="-302.3" font-family="Times,serif" font-size="14.00">[&#39;rating&#39;]</text>
</g>
<!-- 2_selector&#45;&gt;2 -->
<g id="edge3" class="edge">
<title>2_selector&#45;&gt;2</title>
<path fill="none" stroke="black" d="M446.09,-287.7C446.09,-279.98 446.09,-270.71 446.09,-262.11"/>
<polygon fill="black" stroke="black" points="449.59,-262.1 446.09,-252.1 442.59,-262.1 449.59,-262.1"/>
</g>
<!-- 3 -->
<g id="node6" class="node">
<title>3</title>
<ellipse fill="none" stroke="black" cx="100.09" cy="-306" rx="66.89" ry="18"/>
<text text-anchor="middle" x="100.09" y="-302.3" font-family="Times,serif" font-size="14.00">SelectionOp</text>
</g>
<!-- 3&#45;&gt;5 -->
<g id="edge7" class="edge">
<title>3&#45;&gt;5</title>
<path fill="none" stroke="black" d="M100.09,-287.7C100.09,-279.98 100.09,-270.71 100.09,-262.11"/>
<polygon fill="black" stroke="black" points="103.59,-262.1 100.09,-252.1 96.59,-262.1 103.59,-262.1"/>
</g>
<!-- 3_selector -->
<g id="node7" class="node">
<title>3_selector</title>
<ellipse fill="none" stroke="black" cx="100.09" cy="-378" rx="100.18" ry="18"/>
<text text-anchor="middle" x="100.09" y="-374.3" font-family="Times,serif" font-size="14.00">[&#39;userId&#39;, &#39;movieId&#39;]</text>
</g>
<!-- 3_selector&#45;&gt;3 -->
<g id="edge4" class="edge">
<title>3_selector&#45;&gt;3</title>
<path fill="none" stroke="black" d="M100.09,-359.7C100.09,-351.98 100.09,-342.71 100.09,-334.11"/>
<polygon fill="black" stroke="black" points="103.59,-334.1 100.09,-324.1 96.59,-334.1 103.59,-334.1"/>
</g>
<!-- 6 -->
<g id="node9" class="node">
<title>6</title>
<ellipse fill="none" stroke="black" cx="273.09" cy="-18" rx="62.29" ry="18"/>
<text text-anchor="middle" x="273.09" y="-14.3" font-family="Times,serif" font-size="14.00">output cols</text>
</g>
<!-- 4&#45;&gt;6 -->
<g id="edge8" class="edge">
<title>4&#45;&gt;6</title>
<path fill="none" stroke="black" d="M273.09,-71.7C273.09,-63.98 273.09,-54.71 273.09,-46.11"/>
<polygon fill="black" stroke="black" points="276.59,-46.1 273.09,-36.1 269.59,-46.1 276.59,-46.1"/>
</g>
</g>
</svg>