<?xml version="1.0" encoding="UTF-8" standalone="no"?>
<!DOCTYPE svg PUBLIC "-//W3C//DTD SVG 1.1//EN"
 "http://www.w3.org/Graphics/SVG/1.1/DTD/svg11.dtd">
<!-- Generated by graphviz version 2.43.0 (0)
 -->
<!-- Title: %3 Pages: 1 -->
<svg width="310pt" height="404pt"
 viewBox="0.00 0.00 310.34 404.00" xmlns="http://www.w3.org/2000/svg" xmlns:xlink="http://www.w3.org/1999/xlink">
<g id="graph0" class="graph" transform="scale(1 1) rotate(0) translate(4 400)">
<title>%3</title>
<polygon fill="white" stroke="transparent" points="-4,4 -4,-400 306.34,-400 306.34,4 -4,4"/>
<!-- 0 -->
<g id="node1" class="node">
<title>0</title>
<ellipse fill="none" stroke="black" cx="231.49" cy="-234" rx="70.69" ry="18"/>
<text text-anchor="middle" x="231.49" y="-230.3" font-family="Times,serif" font-size="14.00">TagAsItemID</text>
</g>
<!-- 4 -->
<g id="node6" class="node">
<title>4</title>
<ellipse fill="none" stroke="black" cx="151.49" cy="-162" rx="27" ry="18"/>
<text text-anchor="middle" x="151.49" y="-158.3" font-family="Times,serif" font-size="14.00">+</text>
</g>
<!-- 0&#45;&gt;4 -->
<g id="edge6" class="edge">
<title>0&#45;&gt;4</title>
<path fill="none" stroke="black" d="M212.53,-216.41C201.35,-206.62 187.09,-194.15 175.17,-183.72"/>
<polygon fill="black" stroke="black" points="177.18,-180.83 167.35,-176.88 172.58,-186.1 177.18,-180.83"/>
</g>
<!-- 5 -->
<g id="node2" class="node">
<title>5</title>
<ellipse fill="none" stroke="black" cx="231.49" cy="-306" rx="66.89" ry="18"/>
<text text-anchor="middle" x="231.49" y="-302.3" font-family="Times,serif" font-size="14.00">SelectionOp</text>
</g>
<!-- 5&#45;&gt;0 -->
<g id="edge1" class="edge">
<title>5&#45;&gt;0</title>
<path fill="none" stroke="black" d="M231.49,-287.7C231.49,-279.98 231.49,-270.71 231.49,-262.11"/>
<polygon fill="black" stroke="black" points="234.99,-262.1 231.49,-252.1 227.99,-262.1 234.99,-262.1"/>
</g>
<!-- 1 -->
<g id="node3" class="node">
<title>1</title>
<ellipse fill="none" stroke="black" cx="71.49" cy="-306" rx="66.89" ry="18"/>
<text text-anchor="middle" x="71.49" y="-302.3" font-family="Times,serif" font-size="14.00">SelectionOp</text>
</g>
<!-- 3 -->
<g id="node7" class="node">
<title>3</title>
<ellipse fill="none" stroke="black" cx="71.49" cy="-234" rx="71.49" ry="18"/>
<text text-anchor="middle" x="71.49" y="-230.3" font-family="Times,serif" font-size="14.00">TagAsUserID</text>
</g>
<!-- 1&#45;&gt;3 -->
<g id="edge4" class="edge">
<title>1&#45;&gt;3</title>
<path fill="none" stroke="black" d="M71.49,-287.7C71.49,-279.98 71.49,-270.71 71.49,-262.11"/>
<polygon fill="black" stroke="black" points="74.99,-262.1 71.49,-252.1 67.99,-262.1 74.99,-262.1"/>
</g>
<!-- 1_selector -->
<g id="node4" class="node">
<title>1_selector</title>
<ellipse fill="none" stroke="black" cx="71.49" cy="-378" rx="51.99" ry="18"/>
<text text-anchor="middle" x="71.49" y="-374.3" font-family="Times,serif" font-size="14.00">[&#39;userId&#39;]</text>
</g>
<!-- 1_selector&#45;&gt;1 -->
<g id="edge2" class="edge">
<title>1_selector&#45;&gt;1</title>
<path fill="none" stroke="black" d="M71.49,-359.7C71.49,-351.98 71.49,-342.71 71.49,-334.11"/>
<polygon fill="black" stroke="black" points="74.99,-334.1 71.49,-324.1 67.99,-334.1 74.99,-334.1"/>
</g>
<!-- 2 -->
<g id="node5" class="node">
<title>2</title>
<ellipse fill="none" stroke="black" cx="151.49" cy="-90" rx="68.49" ry="18"/>
<text text-anchor="middle" x="151.49" y="-86.3" font-family="Times,serif" font-size="14.00">JoinExternal</text>
</g>
<!-- 6 -->
<g id="node9" class="node">
<title>6</title>
<ellipse fill="none" stroke="black" cx="151.49" cy="-18" rx="62.29" ry="18"/>
<text text-anchor="middle" x="151.49" y="-14.3" font-family="Times,serif" font-size="14.00">output cols</text>
</g>
<!-- 2&#45;&gt;6 -->
<g id="edge8" class="edge">
<title>2&#45;&gt;6</title>
<path fill="none" stroke="black" d="M151.49,-71.7C151.49,-63.98 151.49,-54.71 151.49,-46.11"/>
<polygon fill="black" stroke="black" points="154.99,-46.1 151.49,-36.1 147.99,-46.1 154.99,-46.1"/>
</g>
<!-- 4&#45;&gt;2 -->
<g id="edge3" class="edge">
<title>4&#45;&gt;2</title>
<path fill="none" stroke="black" d="M151.49,-143.7C151.49,-135.98 151.49,-126.71 151.49,-118.11"/>
<polygon fill="black" stroke="black" points="154.99,-118.1 151.49,-108.1 147.99,-118.1 154.99,-118.1"/>
</g>
<!-- 3&#45;&gt;4 -->
<g id="edge5" class="edge">
<title>3&#45;&gt;4</title>
<path fill="none" stroke="black" d="M90.45,-216.41C101.64,-206.62 115.9,-194.15 127.82,-183.72"/>
<polygon fill="black" stroke="black" points="130.41,-186.1 135.63,-176.88 125.8,-180.83 130.41,-186.1"/>
</g>
<!-- 5_selector -->
<g id="node8" class="node">
<title>5_selector</title>
<ellipse fill="none" stroke="black" cx="231.49" cy="-378" rx="59.59" ry="18"/>
<text text-anchor="middle" x="231.49" y="-374.3" font-family="Times,serif" font-size="14.00">[&#39;movieId&#39;]</text>
</g>
<!-- 5_selector&#45;&gt;5 -->
<g id="edge7" class="edge">
<title>5_selector&#45;&gt;5</title>
<path fill="none" stroke="black" d="M231.49,-359.7C231.49,-351.98 231.49,-342.71 231.49,-334.11"/>
<polygon fill="black" stroke="black" points="234.99,-334.1 231.49,-324.1 227.99,-334.1 234.99,-334.1"/>
</g>
</g>
</svg>