<?xml version="1.0" encoding="UTF-8" standalone="no"?>
<!DOCTYPE svg PUBLIC "-//W3C//DTD SVG 1.1//EN"
 "http://www.w3.org/Graphics/SVG/1.1/DTD/svg11.dtd">
<!-- Generated by graphviz version 2.43.0 (0)
 -->
<!-- Title: %3 Pages: 1 -->
<svg width="732pt" height="404pt"
 viewBox="0.00 0.00 731.52 404.00" xmlns="http://www.w3.org/2000/svg" xmlns:xlink="http://www.w3.org/1999/xlink">
<g id="graph0" class="graph" transform="scale(1 1) rotate(0) translate(4 400)">
<title>%3</title>
<polygon fill="white" stroke="transparent" points="-4,4 -4,-400 727.52,-400 727.52,4 -4,4"/>
<!-- 0 -->
<g id="node1" class="node">
<title>0</title>
<ellipse fill="none" stroke="black" cx="398.09" cy="-162" rx="50.09" ry="18"/>
<text text-anchor="middle" x="398.09" y="-158.3" font-family="Times,serif" font-size="14.00">AddTags</text>
</g>
<!-- 6 -->
<g id="node9" class="node">
<title>6</title>
<ellipse fill="none" stroke="black" cx="277.09" cy="-90" rx="27" ry="18"/>
<text text-anchor="middle" x="277.09" y="-86.3" font-family="Times,serif" font-size="14.00">+</text>
</g>
<!-- 0&#45;&gt;6 -->
<g id="edge8" class="edge">
<title>0&#45;&gt;6</title>
<path fill="none" stroke="black" d="M372.73,-146.33C353.13,-134.99 326.02,-119.31 305.67,-107.53"/>
<polygon fill="black" stroke="black" points="307.25,-104.4 296.84,-102.43 303.74,-110.46 307.25,-104.4"/>
</g>
<!-- 4 -->
<g id="node2" class="node">
<title>4</title>
<ellipse fill="none" stroke="black" cx="455.09" cy="-234" rx="268.35" ry="18"/>
<text text-anchor="middle" x="455.09" y="-230.3" font-family="Times,serif" font-size="14.00">nvt.ops.LambdaOp(lambda col: (col &gt; 3).astype(&quot;int8&quot;))</text>
</g>
<!-- 4&#45;&gt;0 -->
<g id="edge1" class="edge">
<title>4&#45;&gt;0</title>
<path fill="none" stroke="black" d="M441,-215.7C434.07,-207.18 425.59,-196.76 418,-187.45"/>
<polygon fill="black" stroke="black" points="420.65,-185.17 411.63,-179.62 415.23,-189.59 420.65,-185.17"/>
</g>
<!-- 1 -->
<g id="node3" class="node">
<title>1</title>
<ellipse fill="none" stroke="black" cx="100.09" cy="-306" rx="66.89" ry="18"/>
<text text-anchor="middle" x="100.09" y="-302.3" font-family="Times,serif" font-size="14.00">SelectionOp</text>
</g>
<!-- 5 -->
<g id="node6" class="node">
<title>5</title>
<ellipse fill="none" stroke="black" cx="100.09" cy="-234" rx="68.49" ry="18"/>
<text text-anchor="middle" x="100.09" y="-230.3" font-family="Times,serif" font-size="14.00">JoinExternal</text>
</g>
<!-- 1&#45;&gt;5 -->
<g id="edge6" class="edge">
<title>1&#45;&gt;5</title>
<path fill="none" stroke="black" d="M100.09,-287.7C100.09,-279.98 100.09,-270.71 100.09,-262.11"/>
<polygon fill="black" stroke="black" points="103.59,-262.1 100.09,-252.1 96.59,-262.1 103.59,-262.1"/>
</g>
<!-- 1_selector -->
<g id="node4" class="node">
<title>1_selector</title>
<ellipse fill="none" stroke="black" cx="100.09" cy="-378" rx="100.18" ry="18"/>
<text text-anchor="middle" x="100.09" y="-374.3" font-family="Times,serif" font-size="14.00">[&#39;userId&#39;, &#39;movieId&#39;]</text>
</g>
<!-- 1_selector&#45;&gt;1 -->
<g id="edge2" class="edge">
<title>1_selector&#45;&gt;1</title>
<path fill="none" stroke="black" d="M100.09,-359.7C100.09,-351.98 100.09,-342.71 100.09,-334.11"/>
<polygon fill="black" stroke="black" points="103.59,-334.1 100.09,-324.1 96.59,-334.1 103.59,-334.1"/>
</g>
<!-- 2 -->
<g id="node5" class="node">
<title>2</title>
<ellipse fill="none" stroke="black" cx="213.09" cy="-162" rx="59.59" ry="18"/>
<text text-anchor="middle" x="213.09" y="-158.3" font-family="Times,serif" font-size="14.00">Categorify</text>
</g>
<!-- 2&#45;&gt;6 -->
<g id="edge7" class="edge">
<title>2&#45;&gt;6</title>
<path fill="none" stroke="black" d="M228.26,-144.41C236.66,-135.22 247.22,-123.67 256.37,-113.66"/>
<polygon fill="black" stroke="black" points="259.18,-115.78 263.34,-106.04 254.01,-111.06 259.18,-115.78"/>
</g>
<!-- 5&#45;&gt;2 -->
<g id="edge3" class="edge">
<title>5&#45;&gt;2</title>
<path fill="none" stroke="black" d="M125.73,-217.12C141.59,-207.29 162.13,-194.57 179.31,-183.93"/>
<polygon fill="black" stroke="black" points="181.28,-186.82 187.94,-178.58 177.6,-180.87 181.28,-186.82"/>
</g>
<!-- 3 -->
<g id="node7" class="node">
<title>3</title>
<ellipse fill="none" stroke="black" cx="455.09" cy="-306" rx="66.89" ry="18"/>
<text text-anchor="middle" x="455.09" y="-302.3" font-family="Times,serif" font-size="14.00">SelectionOp</text>
</g>
<!-- 3&#45;&gt;4 -->
<g id="edge5" class="edge">
<title>3&#45;&gt;4</title>
<path fill="none" stroke="black" d="M455.09,-287.7C455.09,-279.98 455.09,-270.71 455.09,-262.11"/>
<polygon fill="black" stroke="black" points="458.59,-262.1 455.09,-252.1 451.59,-262.1 458.59,-262.1"/>
</g>
<!-- 3_selector -->
<g id="node8" class="node">
<title>3_selector</title>
<ellipse fill="none" stroke="black" cx="455.09" cy="-378" rx="50.89" ry="18"/>
<text text-anchor="middle" x="455.09" y="-374.3" font-family="Times,serif" font-size="14.00">[&#39;rating&#39;]</text>
</g>
<!-- 3_selector&#45;&gt;3 -->
<g id="edge4" class="edge">
<title>3_selector&#45;&gt;3</title>
<path fill="none" stroke="black" d="M455.09,-359.7C455.09,-351.98 455.09,-342.71 455.09,-334.11"/>
<polygon fill="black" stroke="black" points="458.59,-334.1 455.09,-324.1 451.59,-334.1 458.59,-334.1"/>
</g>
<!-- 7 -->
<g id="node10" class="node">
<title>7</title>
<ellipse fill="none" stroke="black" cx="277.09" cy="-18" rx="62.29" ry="18"/>
<text text-anchor="middle" x="277.09" y="-14.3" font-family="Times,serif" font-size="14.00">output cols</text>
</g>
<!-- 6&#45;&gt;7 -->
<g id="edge9" class="edge">
<title>6&#45;&gt;7</title>
<path fill="none" stroke="black" d="M277.09,-71.7C277.09,-63.98 277.09,-54.71 277.09,-46.11"/>
<polygon fill="black" stroke="black" points="280.59,-46.1 277.09,-36.1 273.59,-46.1 280.59,-46.1"/>
</g>
</g>
</svg>