<?xml version="1.0" encoding="UTF-8" standalone="no"?>
<!DOCTYPE svg PUBLIC "-//W3C//DTD SVG 1.1//EN"
 "http://www.w3.org/Graphics/SVG/1.1/DTD/svg11.dtd">
<!-- Generated by graphviz version 2.43.0 (0)
 -->
<!-- Title: %3 Pages: 1 -->
<svg width="709pt" height="548pt"
 viewBox="0.00 0.00 708.87 548.00" xmlns="http://www.w3.org/2000/svg" xmlns:xlink="http://www.w3.org/1999/xlink">
<g id="graph0" class="graph" transform="scale(1 1) rotate(0) translate(4 544)">
<title>%3</title>
<polygon fill="white" stroke="transparent" points="-4,4 -4,-544 704.87,-544 704.87,4 -4,4"/>
<!-- 0 -->
<g id="node1" class="node">
<title>0</title>
<ellipse fill="none" stroke="black" cx="501.38" cy="-162" rx="59.59" ry="18"/>
<text text-anchor="middle" x="501.38" y="-158.3" font-family="Times,serif" font-size="14.00">Categorify</text>
</g>
<!-- 5 -->
<g id="node11" class="node">
<title>5</title>
<ellipse fill="none" stroke="black" cx="390.38" cy="-90" rx="27" ry="18"/>
<text text-anchor="middle" x="390.38" y="-86.3" font-family="Times,serif" font-size="14.00">+</text>
</g>
<!-- 0&#45;&gt;5 -->
<g id="edge7" class="edge">
<title>0&#45;&gt;5</title>
<path fill="none" stroke="black" d="M476.74,-145.46C459.45,-134.56 436.29,-119.95 418.31,-108.61"/>
<polygon fill="black" stroke="black" points="419.76,-105.39 409.43,-103.02 416.02,-111.31 419.76,-105.39"/>
</g>
<!-- 7 -->
<g id="node2" class="node">
<title>7</title>
<ellipse fill="none" stroke="black" cx="549.38" cy="-234" rx="68.49" ry="18"/>
<text text-anchor="middle" x="549.38" y="-230.3" font-family="Times,serif" font-size="14.00">JoinExternal</text>
</g>
<!-- 7&#45;&gt;0 -->
<g id="edge1" class="edge">
<title>7&#45;&gt;0</title>
<path fill="none" stroke="black" d="M537.76,-216.05C532.04,-207.71 525.03,-197.49 518.69,-188.25"/>
<polygon fill="black" stroke="black" points="521.43,-186.06 512.89,-179.79 515.66,-190.02 521.43,-186.06"/>
</g>
<!-- 1 -->
<g id="node3" class="node">
<title>1</title>
<ellipse fill="none" stroke="black" cx="326.38" cy="-162" rx="50.09" ry="18"/>
<text text-anchor="middle" x="326.38" y="-158.3" font-family="Times,serif" font-size="14.00">AddTags</text>
</g>
<!-- 1&#45;&gt;5 -->
<g id="edge8" class="edge">
<title>1&#45;&gt;5</title>
<path fill="none" stroke="black" d="M341.22,-144.76C349.82,-135.37 360.75,-123.41 370.12,-113.15"/>
<polygon fill="black" stroke="black" points="372.76,-115.46 376.92,-105.72 367.59,-110.74 372.76,-115.46"/>
</g>
<!-- 8 -->
<g id="node4" class="node">
<title>8</title>
<ellipse fill="none" stroke="black" cx="231.38" cy="-234" rx="231.26" ry="18"/>
<text text-anchor="middle" x="231.38" y="-230.3" font-family="Times,serif" font-size="14.00">LambdaOp(lambda col: (col &gt; 3).astype(&quot;int8&quot;))</text>
</g>
<!-- 8&#45;&gt;1 -->
<g id="edge2" class="edge">
<title>8&#45;&gt;1</title>
<path fill="none" stroke="black" d="M254.38,-216.05C267.2,-206.61 283.31,-194.74 297.03,-184.63"/>
<polygon fill="black" stroke="black" points="299.24,-187.34 305.22,-178.59 295.09,-181.71 299.24,-187.34"/>
</g>
<!-- 2 -->
<g id="node5" class="node">
<title>2</title>
<ellipse fill="none" stroke="black" cx="469.38" cy="-378" rx="70.69" ry="18"/>
<text text-anchor="middle" x="469.38" y="-374.3" font-family="Times,serif" font-size="14.00">TagAsItemID</text>
</g>
<!-- 3 -->
<g id="node7" class="node">
<title>3</title>
<ellipse fill="none" stroke="black" cx="549.38" cy="-306" rx="27" ry="18"/>
<text text-anchor="middle" x="549.38" y="-302.3" font-family="Times,serif" font-size="14.00">+</text>
</g>
<!-- 2&#45;&gt;3 -->
<g id="edge5" class="edge">
<title>2&#45;&gt;3</title>
<path fill="none" stroke="black" d="M488.34,-360.41C499.53,-350.62 513.78,-338.15 525.7,-327.72"/>
<polygon fill="black" stroke="black" points="528.3,-330.1 533.52,-320.88 523.69,-324.83 528.3,-330.1"/>
</g>
<!-- 6 -->
<g id="node6" class="node">
<title>6</title>
<ellipse fill="none" stroke="black" cx="469.38" cy="-450" rx="66.89" ry="18"/>
<text text-anchor="middle" x="469.38" y="-446.3" font-family="Times,serif" font-size="14.00">SelectionOp</text>
</g>
<!-- 6&#45;&gt;2 -->
<g id="edge3" class="edge">
<title>6&#45;&gt;2</title>
<path fill="none" stroke="black" d="M469.38,-431.7C469.38,-423.98 469.38,-414.71 469.38,-406.11"/>
<polygon fill="black" stroke="black" points="472.88,-406.1 469.38,-396.1 465.88,-406.1 472.88,-406.1"/>
</g>
<!-- 3&#45;&gt;7 -->
<g id="edge10" class="edge">
<title>3&#45;&gt;7</title>
<path fill="none" stroke="black" d="M549.38,-287.7C549.38,-279.98 549.38,-270.71 549.38,-262.11"/>
<polygon fill="black" stroke="black" points="552.88,-262.1 549.38,-252.1 545.88,-262.1 552.88,-262.1"/>
</g>
<!-- 10 -->
<g id="node8" class="node">
<title>10</title>
<ellipse fill="none" stroke="black" cx="629.38" cy="-378" rx="71.49" ry="18"/>
<text text-anchor="middle" x="629.38" y="-374.3" font-family="Times,serif" font-size="14.00">TagAsUserID</text>
</g>
<!-- 10&#45;&gt;3 -->
<g id="edge4" class="edge">
<title>10&#45;&gt;3</title>
<path fill="none" stroke="black" d="M610.42,-360.41C599.23,-350.62 584.98,-338.15 573.05,-327.72"/>
<polygon fill="black" stroke="black" points="575.07,-324.83 565.24,-320.88 570.46,-330.1 575.07,-324.83"/>
</g>
<!-- 4 -->
<g id="node9" class="node">
<title>4</title>
<ellipse fill="none" stroke="black" cx="231.38" cy="-306" rx="66.89" ry="18"/>
<text text-anchor="middle" x="231.38" y="-302.3" font-family="Times,serif" font-size="14.00">SelectionOp</text>
</g>
<!-- 4&#45;&gt;8 -->
<g id="edge11" class="edge">
<title>4&#45;&gt;8</title>
<path fill="none" stroke="black" d="M231.38,-287.7C231.38,-279.98 231.38,-270.71 231.38,-262.11"/>
<polygon fill="black" stroke="black" points="234.88,-262.1 231.38,-252.1 227.88,-262.1 234.88,-262.1"/>
</g>
<!-- 4_selector -->
<g id="node10" class="node">
<title>4_selector</title>
<ellipse fill="none" stroke="black" cx="231.38" cy="-378" rx="50.89" ry="18"/>
<text text-anchor="middle" x="231.38" y="-374.3" font-family="Times,serif" font-size="14.00">[&#39;rating&#39;]</text>
</g>
<!-- 4_selector&#45;&gt;4 -->
<g id="edge6" class="edge">
<title>4_selector&#45;&gt;4</title>
<path fill="none" stroke="black" d="M231.38,-359.7C231.38,-351.98 231.38,-342.71 231.38,-334.11"/>
<polygon fill="black" stroke="black" points="234.88,-334.1 231.38,-324.1 227.88,-334.1 234.88,-334.1"/>
</g>
<!-- 11 -->
<g id="node15" class="node">
<title>11</title>
<ellipse fill="none" stroke="black" cx="390.38" cy="-18" rx="62.29" ry="18"/>
<text text-anchor="middle" x="390.38" y="-14.3" font-family="Times,serif" font-size="14.00">output cols</text>
</g>
<!-- 5&#45;&gt;11 -->
<g id="edge14" class="edge">
<title>5&#45;&gt;11</title>
<path fill="none" stroke="black" d="M390.38,-71.7C390.38,-63.98 390.38,-54.71 390.38,-46.11"/>
<polygon fill="black" stroke="black" points="393.88,-46.1 390.38,-36.1 386.88,-46.1 393.88,-46.1"/>
</g>
<!-- 6_selector -->
<g id="node12" class="node">
<title>6_selector</title>
<ellipse fill="none" stroke="black" cx="469.38" cy="-522" rx="59.59" ry="18"/>
<text text-anchor="middle" x="469.38" y="-518.3" font-family="Times,serif" font-size="14.00">[&#39;movieId&#39;]</text>
</g>
<!-- 6_selector&#45;&gt;6 -->
<g id="edge9" class="edge">
<title>6_selector&#45;&gt;6</title>
<path fill="none" stroke="black" d="M469.38,-503.7C469.38,-495.98 469.38,-486.71 469.38,-478.11"/>
<polygon fill="black" stroke="black" points="472.88,-478.1 469.38,-468.1 465.88,-478.1 472.88,-478.1"/>
</g>
<!-- 9 -->
<g id="node13" class="node">
<title>9</title>
<ellipse fill="none" stroke="black" cx="629.38" cy="-450" rx="66.89" ry="18"/>
<text text-anchor="middle" x="629.38" y="-446.3" font-family="Times,serif" font-size="14.00">SelectionOp</text>
</g>
<!-- 9&#45;&gt;10 -->
<g id="edge13" class="edge">
<title>9&#45;&gt;10</title>
<path fill="none" stroke="black" d="M629.38,-431.7C629.38,-423.98 629.38,-414.71 629.38,-406.11"/>
<polygon fill="black" stroke="black" points="632.88,-406.1 629.38,-396.1 625.88,-406.1 632.88,-406.1"/>
</g>
<!-- 9_selector -->
<g id="node14" class="node">
<title>9_selector</title>
<ellipse fill="none" stroke="black" cx="629.38" cy="-522" rx="51.99" ry="18"/>
<text text-anchor="middle" x="629.38" y="-518.3" font-family="Times,serif" font-size="14.00">[&#39;userId&#39;]</text>
</g>
<!-- 9_selector&#45;&gt;9 -->
<g id="edge12" class="edge">
<title>9_selector&#45;&gt;9</title>
<path fill="none" stroke="black" d="M629.38,-503.7C629.38,-495.98 629.38,-486.71 629.38,-478.11"/>
<polygon fill="black" stroke="black" points="632.88,-478.1 629.38,-468.1 625.88,-478.1 632.88,-478.1"/>
</g>
</g>
</svg>