<?xml version="1.0" encoding="UTF-8" standalone="no"?>
<!DOCTYPE svg PUBLIC "-//W3C//DTD SVG 1.1//EN"
 "http://www.w3.org/Graphics/SVG/1.1/DTD/svg11.dtd">
<!-- Generated by graphviz version 2.43.0 (0)
 -->
<!-- Title: %3 Pages: 1 -->
<svg width="667pt" height="404pt"
 viewBox="0.00 0.00 667.32 404.00" xmlns="http://www.w3.org/2000/svg" xmlns:xlink="http://www.w3.org/1999/xlink">
<g id="graph0" class="graph" transform="scale(1 1) rotate(0) translate(4 400)">
<title>%3</title>
<polygon fill="white" stroke="transparent" points="-4,4 -4,-400 663.32,-400 663.32,4 -4,4"/>
<!-- 0 -->
<g id="node1" class="node">
<title>0</title>
<ellipse fill="none" stroke="black" cx="379.09" cy="-162" rx="73.39" ry="18"/>
<text text-anchor="middle" x="379.09" y="-158.3" font-family="Times,serif" font-size="14.00">AddMetadata</text>
</g>
<!-- 5 -->
<g id="node8" class="node">
<title>5</title>
<ellipse fill="none" stroke="black" cx="260.09" cy="-90" rx="27" ry="18"/>
<text text-anchor="middle" x="260.09" y="-86.3" font-family="Times,serif" font-size="14.00">+</text>
</g>
<!-- 0&#45;&gt;5 -->
<g id="edge7" class="edge">
<title>0&#45;&gt;5</title>
<path fill="none" stroke="black" d="M352.09,-145.12C333.14,-133.97 307.86,-119.1 288.59,-107.77"/>
<polygon fill="black" stroke="black" points="290.34,-104.73 279.94,-102.68 286.79,-110.76 290.34,-104.73"/>
</g>
<!-- 4 -->
<g id="node2" class="node">
<title>4</title>
<ellipse fill="none" stroke="black" cx="422.09" cy="-234" rx="237.46" ry="18"/>
<text text-anchor="middle" x="422.09" y="-230.3" font-family="Times,serif" font-size="14.00">nvt.ops.LambdaOp(lambda x: (x&gt;3).astype(&#39;int&#39;))</text>
</g>
<!-- 4&#45;&gt;0 -->
<g id="edge1" class="edge">
<title>4&#45;&gt;0</title>
<path fill="none" stroke="black" d="M411.46,-215.7C406.46,-207.56 400.4,-197.69 394.88,-188.7"/>
<polygon fill="black" stroke="black" points="397.81,-186.79 389.6,-180.1 391.85,-190.46 397.81,-186.79"/>
</g>
<!-- 1 -->
<g id="node3" class="node">
<title>1</title>
<ellipse fill="none" stroke="black" cx="185.09" cy="-162" rx="59.59" ry="18"/>
<text text-anchor="middle" x="185.09" y="-158.3" font-family="Times,serif" font-size="14.00">Categorify</text>
</g>
<!-- 1&#45;&gt;5 -->
<g id="edge6" class="edge">
<title>1&#45;&gt;5</title>
<path fill="none" stroke="black" d="M202.49,-144.76C212.89,-135.05 226.23,-122.6 237.46,-112.13"/>
<polygon fill="black" stroke="black" points="239.9,-114.63 244.82,-105.25 235.12,-109.51 239.9,-114.63"/>
</g>
<!-- 2 -->
<g id="node4" class="node">
<title>2</title>
<ellipse fill="none" stroke="black" cx="100.09" cy="-234" rx="66.89" ry="18"/>
<text text-anchor="middle" x="100.09" y="-230.3" font-family="Times,serif" font-size="14.00">SelectionOp</text>
</g>
<!-- 2&#45;&gt;1 -->
<g id="edge2" class="edge">
<title>2&#45;&gt;1</title>
<path fill="none" stroke="black" d="M119.81,-216.76C131.07,-207.49 145.37,-195.71 157.71,-185.55"/>
<polygon fill="black" stroke="black" points="159.99,-188.21 165.48,-179.15 155.54,-182.8 159.99,-188.21"/>
</g>
<!-- 2_selector -->
<g id="node5" class="node">
<title>2_selector</title>
<ellipse fill="none" stroke="black" cx="100.09" cy="-306" rx="100.18" ry="18"/>
<text text-anchor="middle" x="100.09" y="-302.3" font-family="Times,serif" font-size="14.00">[&#39;userId&#39;, &#39;movieId&#39;]</text>
</g>
<!-- 2_selector&#45;&gt;2 -->
<g id="edge3" class="edge">
<title>2_selector&#45;&gt;2</title>
<path fill="none" stroke="black" d="M100.09,-287.7C100.09,-279.98 100.09,-270.71 100.09,-262.11"/>
<polygon fill="black" stroke="black" points="103.59,-262.1 100.09,-252.1 96.59,-262.1 103.59,-262.1"/>
</g>
<!-- 3 -->
<g id="node6" class="node">
<title>3</title>
<ellipse fill="none" stroke="black" cx="422.09" cy="-306" rx="66.89" ry="18"/>
<text text-anchor="middle" x="422.09" y="-302.3" font-family="Times,serif" font-size="14.00">SelectionOp</text>
</g>
<!-- 3&#45;&gt;4 -->
<g id="edge5" class="edge">
<title>3&#45;&gt;4</title>
<path fill="none" stroke="black" d="M422.09,-287.7C422.09,-279.98 422.09,-270.71 422.09,-262.11"/>
<polygon fill="black" stroke="black" points="425.59,-262.1 422.09,-252.1 418.59,-262.1 425.59,-262.1"/>
</g>
<!-- 3_selector -->
<g id="node7" class="node">
<title>3_selector</title>
<ellipse fill="none" stroke="black" cx="422.09" cy="-378" rx="50.89" ry="18"/>
<text text-anchor="middle" x="422.09" y="-374.3" font-family="Times,serif" font-size="14.00">[&#39;rating&#39;]</text>
</g>
<!-- 3_selector&#45;&gt;3 -->
<g id="edge4" class="edge">
<title>3_selector&#45;&gt;3</title>
<path fill="none" stroke="black" d="M422.09,-359.7C422.09,-351.98 422.09,-342.71 422.09,-334.11"/>
<polygon fill="black" stroke="black" points="425.59,-334.1 422.09,-324.1 418.59,-334.1 425.59,-334.1"/>
</g>
<!-- 6 -->
<g id="node9" class="node">
<title>6</title>
<ellipse fill="none" stroke="black" cx="260.09" cy="-18" rx="62.29" ry="18"/>
<text text-anchor="middle" x="260.09" y="-14.3" font-family="Times,serif" font-size="14.00">output cols</text>
</g>
<!-- 5&#45;&gt;6 -->
<g id="edge8" class="edge">
<title>5&#45;&gt;6</title>
<path fill="none" stroke="black" d="M260.09,-71.7C260.09,-63.98 260.09,-54.71 260.09,-46.11"/>
<polygon fill="black" stroke="black" points="263.59,-46.1 260.09,-36.1 256.59,-46.1 263.59,-46.1"/>
</g>
</g>
</svg>