<?xml version="1.0" encoding="UTF-8" standalone="no"?>
<svg
   xmlns:dc="http://purl.org/dc/elements/1.1/"
   xmlns:cc="http://creativecommons.org/ns#"
   xmlns:rdf="http://www.w3.org/1999/02/22-rdf-syntax-ns#"
   xmlns:svg="http://www.w3.org/2000/svg"
   xmlns="http://www.w3.org/2000/svg"
   xmlns:sodipodi="http://sodipodi.sourceforge.net/DTD/sodipodi-0.dtd"
   xmlns:inkscape="http://www.inkscape.org/namespaces/inkscape"
   width="401.64978"
   height="320.96393"
   viewBox="0 0 106.26984 84.921706"
   version="1.1"
   id="svg8"
   inkscape:version="1.0.2 (e86c870879, 2021-01-15)"
   sodipodi:docname="graph_schema.svg">
  <defs
     id="defs2">
    <rect
       x="94.456253"
       y="4.2333326"
       width="33.337502"
       height="15.08125"
       id="rect3021" />
    <marker
       style="overflow:visible"
       id="marker2120"
       refX="0"
       refY="0"
       orient="auto"
       inkscape:stockid="Arrow2Lend"
       inkscape:isstock="true">
      <path
         transform="matrix(-1.1,0,0,-1.1,-1.1,0)"
         d="M 8.7185878,4.0337352 -2.2072895,0.01601326 8.7185884,-4.0017078 c -1.7454984,2.3720609 -1.7354408,5.6174519 -6e-7,8.035443 z"
         style="fill:#000000;fill-opacity:1;fill-rule:evenodd;stroke:#000000;stroke-width:0.625;stroke-linejoin:round;stroke-opacity:1"
         id="path2118" />
    </marker>
    <rect
       x="109.53925"
       y="19.147818"
       width="43.493198"
       height="15.121445"
       id="rect851" />
    <rect
       x="109.53925"
       y="19.147818"
       width="78.523193"
       height="15.219549"
       id="rect851-7" />
    <marker
       style="overflow:visible"
       id="marker2120-8"
       refX="0"
       refY="0"
       orient="auto"
       inkscape:stockid="Arrow2Lend"
       inkscape:isstock="true">
      <path
         transform="matrix(-1.1,0,0,-1.1,-1.1,0)"
         d="M 8.7185878,4.0337352 -2.2072895,0.01601326 8.7185884,-4.0017078 c -1.7454984,2.3720609 -1.7354408,5.6174519 -6e-7,8.035443 z"
         style="fill:#000000;fill-opacity:1;fill-rule:evenodd;stroke:#000000;stroke-width:0.625;stroke-linejoin:round;stroke-opacity:1"
         id="path2118-5" />
    </marker>
    <rect
       x="94.456253"
       y="4.2333326"
       width="33.337502"
       height="15.08125"
       id="rect3021-1" />
    <rect
       x="94.456253"
       y="4.2333326"
       width="33.337502"
       height="15.08125"
       id="rect3034" />
  </defs>
  <sodipodi:namedview
     id="base"
     pagecolor="#ffffff"
     bordercolor="#000000"
     borderopacity="1"
     inkscape:pageopacity="0.0"
     inkscape:pageshadow="2"
     inkscape:zoom="0.76"
     inkscape:cx="112.38765"
     inkscape:cy="380.35544"
     inkscape:document-units="px"
     inkscape:current-layer="layer1"
     inkscape:document-rotation="0"
     showgrid="true"
     inkscape:window-width="1411"
     inkscape:window-height="1199"
     inkscape:window-x="1899"
     inkscape:window-y="152"
     inkscape:window-maximized="0"
     fit-margin-top="0"
     fit-margin-left="0"
     fit-margin-right="0"
     fit-margin-bottom="0"
     units="px"
     borderlayer="true"
     gridtolerance="10">
    <inkscape:grid
       type="xygrid"
       id="grid934"
       originx="-26.330816"
       originy="10.975433"
       snapvisiblegridlinesonly="false" />
  </sodipodi:namedview>
  <metadata
     id="metadata5">
    <rdf:RDF>
      <cc:Work
         rdf:about="">
        <dc:format>image/svg+xml</dc:format>
        <dc:type
           rdf:resource="http://purl.org/dc/dcmitype/StillImage" />
        <dc:title></dc:title>
      </cc:Work>
    </rdf:RDF>
  </metadata>
  <g
     inkscape:label="Layer 1"
     inkscape:groupmode="layer"
     id="layer1"
     transform="translate(-26.330815,10.975435)">
    <ellipse
       style="fill:none;stroke:#000000;stroke-width:0.246936;stroke-miterlimit:4;stroke-dasharray:none;stroke-opacity:1"
       id="path10-6"
       cx="90.009811"
       cy="35.63205"
       rx="33.522179"
       ry="13.968424" />
    <g
       aria-label="SomeOperator(...)
"
       transform="matrix(0.87105632,0,0,1,-38.130293,13.836278)"
       id="text849-7"
       style="font-style:normal;font-variant:normal;font-weight:bold;font-stretch:normal;font-size:4.23333px;line-height:1.25;font-family:'NVIDIA Sans';-inkscape-font-specification:'NVIDIA Sans, Bold';font-variant-ligatures:normal;font-variant-caps:normal;font-variant-numeric:normal;font-variant-east-asian:normal;white-space:pre;shape-inside:url(#rect851-7)">
      <path
         d="m 132.19981,23.02946 q -0.9271,0 -1.1811,-0.656166 l 0.5207,-0.2667 q 0.14817,0.3937 0.6604,0.3937 h 0.055 q 0.53764,0 0.53764,-0.347133 v -0.04233 q 0,-0.135467 -0.0931,-0.232834 -0.0931,-0.09737 -0.2667,-0.118533 l -0.46143,-0.05503 q -0.42333,-0.0508 -0.64347,-0.262467 -0.22013,-0.215899 -0.22013,-0.584199 v -0.0508 q 0,-0.262466 0.13547,-0.452966 0.13546,-0.194733 0.381,-0.300567 0.24976,-0.105833 0.5842,-0.105833 h 0.0635 q 0.4064,0 0.6858,0.1651 0.2794,0.160866 0.40216,0.4699 l -0.54186,0.228599 q -0.1143,-0.334433 -0.55034,-0.334433 h -0.055 q -0.2286,0 -0.35983,0.0889 -0.127,0.0889 -0.127,0.237067 v 0.04233 q 0,0.258233 0.3556,0.3048 l 0.46143,0.05503 q 0.4318,0.0508 0.6477,0.283633 0.22013,0.232833 0.22013,0.605366 v 0.0508 q 0,0.423333 -0.29633,0.656166 -0.29633,0.2286 -0.8509,0.2286 z"
         style="font-style:normal;font-variant:normal;font-weight:bold;font-stretch:normal;font-size:4.23333px;font-family:'NVIDIA Sans';-inkscape-font-specification:'NVIDIA Sans, Bold';font-variant-ligatures:normal;font-variant-caps:normal;font-variant-numeric:normal;font-variant-east-asian:normal;text-align:center;text-anchor:middle"
         id="path2746" />
      <path
         d="m 134.76097,23.02946 q -0.3048,0 -0.5461,-0.127 -0.2413,-0.127 -0.381,-0.368299 -0.1397,-0.245534 -0.1397,-0.592667 v -0.126999 q 0,-0.351367 0.1397,-0.592667 0.1397,-0.241299 0.381,-0.368299 0.2413,-0.127 0.5461,-0.127 h 0.0296 q 0.3048,0 0.5461,0.127 0.2413,0.127 0.381,0.368299 0.1397,0.2413 0.1397,0.592667 v 0.126999 q 0,0.347133 -0.1397,0.592667 -0.1397,0.241299 -0.381,0.368299 -0.2413,0.127 -0.5461,0.127 z m 0,-0.507999 h 0.0296 q 0.20743,0 0.33866,-0.135467 0.13547,-0.135467 0.13547,-0.4318 v -0.152399 q 0,-0.296334 -0.13547,-0.4318 -0.13123,-0.135467 -0.33866,-0.135467 h -0.0296 q -0.20743,0 -0.3429,0.135467 -0.13123,0.135466 -0.13123,0.4318 v 0.152399 q 0,0.296333 0.13123,0.4318 0.13547,0.135467 0.3429,0.135467 z"
         style="font-style:normal;font-variant:normal;font-weight:bold;font-stretch:normal;font-size:4.23333px;font-family:'NVIDIA Sans';-inkscape-font-specification:'NVIDIA Sans, Bold';font-variant-ligatures:normal;font-variant-caps:normal;font-variant-numeric:normal;font-variant-east-asian:normal;text-align:center;text-anchor:middle"
         id="path2748" />
      <path
         d="m 136.29344,22.970194 v -2.184399 h 0.51646 v 0.2667 q 0.10584,-0.156633 0.2667,-0.2413 0.16087,-0.08467 0.36407,-0.08467 h 0.0423 q 0.4572,0 0.65617,0.355599 0.11007,-0.169333 0.2794,-0.262466 0.17357,-0.09313 0.3937,-0.09313 h 0.0423 q 0.3556,0 0.56304,0.232833 0.21166,0.2286 0.21166,0.656166 v 1.354666 h -0.59266 V 21.69596 q 0,-0.220133 -0.0847,-0.338666 -0.0804,-0.122767 -0.25823,-0.122767 h -0.0339 q -0.14393,0 -0.27517,0.127 -0.127,0.122767 -0.127,0.397933 v 1.210733 h -0.59266 V 21.69596 q 0,-0.220133 -0.0847,-0.338666 -0.0804,-0.122767 -0.25823,-0.122767 h -0.0339 q -0.14393,0 -0.27517,0.127 -0.127,0.122767 -0.127,0.397933 v 1.210733 z"
         style="font-style:normal;font-variant:normal;font-weight:bold;font-stretch:normal;font-size:4.23333px;font-family:'NVIDIA Sans';-inkscape-font-specification:'NVIDIA Sans, Bold';font-variant-ligatures:normal;font-variant-caps:normal;font-variant-numeric:normal;font-variant-east-asian:normal;text-align:center;text-anchor:middle"
         id="path2750" />
      <path
         d="m 141.0898,23.02946 q -0.49954,0 -0.7747,-0.283633 -0.27517,-0.283633 -0.27517,-0.800099 v -0.127 q 0,-0.516466 0.2794,-0.804333 0.2794,-0.287866 0.77047,-0.287866 h 0.0339 q 0.46567,0 0.7239,0.283633 0.26247,0.2794 0.26247,0.774699 v 0.2667 h -1.4859 q 0.0296,0.503766 0.46567,0.503766 h 0.0593 q 0.33443,0 0.4699,-0.224366 l 0.42757,0.283633 q -0.11854,0.194733 -0.3556,0.3048 -0.23284,0.110066 -0.53764,0.110066 z m -0.46144,-1.375832 h 0.90593 v -0.0127 q 0,-0.440266 -0.41063,-0.440266 h -0.0339 q -0.4064,0 -0.46144,0.452966 z"
         style="font-style:normal;font-variant:normal;font-weight:bold;font-stretch:normal;font-size:4.23333px;font-family:'NVIDIA Sans';-inkscape-font-specification:'NVIDIA Sans, Bold';font-variant-ligatures:normal;font-variant-caps:normal;font-variant-numeric:normal;font-variant-east-asian:normal;text-align:center;text-anchor:middle"
         id="path2752" />
      <path
         d="m 143.84569,23.02946 q -0.4318,0 -0.74083,-0.1778 -0.3048,-0.1778 -0.4699,-0.503766 -0.16087,-0.325966 -0.16087,-0.774699 v -0.169333 q 0,-0.448733 0.16087,-0.7747 0.1651,-0.325966 0.4699,-0.503766 0.30903,-0.1778 0.74083,-0.1778 h 0.0423 q 0.4318,0 0.7366,0.1778 0.30903,0.1778 0.4699,0.503766 0.1651,0.325967 0.1651,0.7747 v 0.169333 q 0,0.448733 -0.1651,0.774699 -0.16087,0.325966 -0.4699,0.503766 -0.3048,0.1778 -0.7366,0.1778 z m 0.004,-0.541866 h 0.0339 q 0.34713,0 0.55033,-0.224367 0.20743,-0.224366 0.20743,-0.677332 v -0.194733 q 0,-0.452967 -0.20743,-0.677333 -0.2032,-0.224367 -0.55033,-0.224367 h -0.0339 q -0.34713,0 -0.55456,0.224367 -0.2032,0.224366 -0.2032,0.677333 v 0.194733 q 0,0.452966 0.2032,0.677332 0.20743,0.224367 0.55456,0.224367 z"
         style="font-style:normal;font-variant:normal;font-weight:bold;font-stretch:normal;font-size:4.23333px;font-family:'NVIDIA Sans';-inkscape-font-specification:'NVIDIA Sans, Bold';font-variant-ligatures:normal;font-variant-caps:normal;font-variant-numeric:normal;font-variant-east-asian:normal;text-align:center;text-anchor:middle"
         id="path2754" />
      <path
         d="m 145.75492,23.816859 v -3.031064 h 0.51646 v 0.270933 q 0.22437,-0.330199 0.69004,-0.330199 h 0.0296 q 0.2667,0 0.4699,0.127 0.20743,0.122766 0.32173,0.368299 0.11853,0.2413 0.11853,0.5969 v 0.127 q 0,0.347133 -0.11853,0.592666 -0.1143,0.2413 -0.32173,0.3683 -0.2032,0.122766 -0.4699,0.122766 h -0.0296 q -0.3937,0 -0.61384,-0.262466 v 1.049865 z m 1.04563,-1.295398 h 0.0339 q 0.2032,0 0.33866,-0.135467 0.13547,-0.135467 0.13547,-0.436033 v -0.1397 q 0,-0.300566 -0.13547,-0.436033 -0.13546,-0.1397 -0.33866,-0.1397 h -0.0339 q -0.11007,0 -0.22013,0.05927 -0.10584,0.05503 -0.17357,0.182033 -0.0677,0.122767 -0.0677,0.334433 v 0.135467 q 0,0.207433 0.0677,0.334433 0.072,0.127 0.1778,0.186266 0.11007,0.05503 0.2159,0.05503 z"
         style="font-style:normal;font-variant:normal;font-weight:bold;font-stretch:normal;font-size:4.23333px;font-family:'NVIDIA Sans';-inkscape-font-specification:'NVIDIA Sans, Bold';font-variant-ligatures:normal;font-variant-caps:normal;font-variant-numeric:normal;font-variant-east-asian:normal;text-align:center;text-anchor:middle"
         id="path2756" />
      <path
         d="m 149.27281,23.02946 q -0.49954,0 -0.7747,-0.283633 -0.27517,-0.283633 -0.27517,-0.800099 v -0.127 q 0,-0.516466 0.2794,-0.804333 0.2794,-0.287866 0.77047,-0.287866 h 0.0339 q 0.46567,0 0.7239,0.283633 0.26247,0.2794 0.26247,0.774699 v 0.2667 h -1.4859 q 0.0296,0.503766 0.46567,0.503766 h 0.0593 q 0.33444,0 0.4699,-0.224366 l 0.42757,0.283633 q -0.11853,0.194733 -0.3556,0.3048 -0.23283,0.110066 -0.53763,0.110066 z m -0.46144,-1.375832 h 0.90594 v -0.0127 q 0,-0.440266 -0.41064,-0.440266 h -0.0339 q -0.4064,0 -0.46144,0.452966 z"
         style="font-style:normal;font-variant:normal;font-weight:bold;font-stretch:normal;font-size:4.23333px;font-family:'NVIDIA Sans';-inkscape-font-specification:'NVIDIA Sans, Bold';font-variant-ligatures:normal;font-variant-caps:normal;font-variant-numeric:normal;font-variant-east-asian:normal;text-align:center;text-anchor:middle"
         id="path2758" />
      <path
         d="m 150.71214,22.970194 v -2.184399 h 0.51646 v 0.372533 q 0.0889,-0.190499 0.22437,-0.292099 0.13547,-0.105834 0.3683,-0.105834 h 0.23283 v 0.5461 h -0.21166 q -0.127,0 -0.24977,0.0508 -0.12277,0.0508 -0.20743,0.1778 -0.0804,0.122766 -0.0804,0.342899 v 1.0922 z"
         style="font-style:normal;font-variant:normal;font-weight:bold;font-stretch:normal;font-size:4.23333px;font-family:'NVIDIA Sans';-inkscape-font-specification:'NVIDIA Sans, Bold';font-variant-ligatures:normal;font-variant-caps:normal;font-variant-numeric:normal;font-variant-east-asian:normal;text-align:center;text-anchor:middle"
         id="path2760" />
      <path
         d="m 152.9939,23.02946 q -0.35137,0 -0.5461,-0.173566 -0.1905,-0.173567 -0.1905,-0.486833 0,-0.287867 0.17356,-0.461433 0.1778,-0.173567 0.51224,-0.2159 l 0.6858,-0.0889 v -0.01693 q 0,-0.385233 -0.35137,-0.385233 h -0.0423 q -0.15664,0 -0.26247,0.05927 -0.10583,0.05503 -0.1778,0.198967 l -0.45297,-0.237067 q 0.0974,-0.224366 0.32597,-0.359833 0.23283,-0.135466 0.56303,-0.135466 h 0.0635 q 0.9271,0 0.9271,0.867832 v 1.375833 h -0.51646 v -0.275167 q -0.1016,0.156633 -0.28364,0.245533 -0.1778,0.0889 -0.4064,0.0889 z m 0.635,-1.028699 -0.45297,0.0635 q -0.19473,0.02963 -0.27093,0.08467 -0.0762,0.0508 -0.0762,0.169333 0,0.1143 0.0847,0.182033 0.0889,0.0635 0.23284,0.0635 h 0.0339 q 0.21167,0 0.3302,-0.122767 0.11854,-0.122766 0.11854,-0.334433 z"
         style="font-style:normal;font-variant:normal;font-weight:bold;font-stretch:normal;font-size:4.23333px;font-family:'NVIDIA Sans';-inkscape-font-specification:'NVIDIA Sans, Bold';font-variant-ligatures:normal;font-variant-caps:normal;font-variant-numeric:normal;font-variant-east-asian:normal;text-align:center;text-anchor:middle"
         id="path2762" />
      <path
         d="m 155.73286,22.995594 q -0.45297,0 -0.64347,-0.194734 -0.18627,-0.194733 -0.18627,-0.579966 v -0.939799 h -0.4572 v -0.4953 h 0.4572 v -0.622299 h 0.59267 v 0.622299 h 0.6731 l -0.072,0.4953 h -0.60113 v 0.918633 q 0,0.156633 0.0762,0.228599 0.0804,0.06773 0.2159,0.06773 h 0.381 v 0.499533 z"
         style="font-style:normal;font-variant:normal;font-weight:bold;font-stretch:normal;font-size:4.23333px;font-family:'NVIDIA Sans';-inkscape-font-specification:'NVIDIA Sans, Bold';font-variant-ligatures:normal;font-variant-caps:normal;font-variant-numeric:normal;font-variant-east-asian:normal;text-align:center;text-anchor:middle"
         id="path2764" />
      <path
         d="m 157.53202,23.02946 q -0.3048,0 -0.5461,-0.127 -0.2413,-0.127 -0.381,-0.368299 -0.1397,-0.245534 -0.1397,-0.592667 v -0.126999 q 0,-0.351367 0.1397,-0.592667 0.1397,-0.241299 0.381,-0.368299 0.2413,-0.127 0.5461,-0.127 h 0.0296 q 0.3048,0 0.5461,0.127 0.2413,0.127 0.381,0.368299 0.1397,0.2413 0.1397,0.592667 v 0.126999 q 0,0.347133 -0.1397,0.592667 -0.1397,0.241299 -0.381,0.368299 -0.2413,0.127 -0.5461,0.127 z m 0,-0.507999 h 0.0296 q 0.20744,0 0.33867,-0.135467 0.13547,-0.135467 0.13547,-0.4318 v -0.152399 q 0,-0.296334 -0.13547,-0.4318 -0.13123,-0.135467 -0.33867,-0.135467 h -0.0296 q -0.20743,0 -0.3429,0.135467 -0.13123,0.135466 -0.13123,0.4318 v 0.152399 q 0,0.296333 0.13123,0.4318 0.13547,0.135467 0.3429,0.135467 z"
         style="font-style:normal;font-variant:normal;font-weight:bold;font-stretch:normal;font-size:4.23333px;font-family:'NVIDIA Sans';-inkscape-font-specification:'NVIDIA Sans, Bold';font-variant-ligatures:normal;font-variant-caps:normal;font-variant-numeric:normal;font-variant-east-asian:normal;text-align:center;text-anchor:middle"
         id="path2766" />
      <path
         d="m 159.06448,22.970194 v -2.184399 h 0.51647 v 0.372533 q 0.0889,-0.190499 0.22437,-0.292099 0.13546,-0.105834 0.3683,-0.105834 h 0.23283 v 0.5461 h -0.21167 q -0.127,0 -0.24976,0.0508 -0.12277,0.0508 -0.20744,0.1778 -0.0804,0.122766 -0.0804,0.342899 v 1.0922 z"
         style="font-style:normal;font-variant:normal;font-weight:bold;font-stretch:normal;font-size:4.23333px;font-family:'NVIDIA Sans';-inkscape-font-specification:'NVIDIA Sans, Bold';font-variant-ligatures:normal;font-variant-caps:normal;font-variant-numeric:normal;font-variant-east-asian:normal;text-align:center;text-anchor:middle"
         id="path2768" />
      <path
         d="m 161.36742,23.520526 q -0.56727,-0.850899 -0.56727,-1.786465 v -0.245533 q 0,-0.461433 0.14393,-0.905932 0.14394,-0.448733 0.42334,-0.872066 h 0.58419 q -0.25823,0.423333 -0.3937,0.876299 -0.13546,0.452966 -0.13546,0.901699 v 0.245533 q 0,0.448733 0.13546,0.910166 0.13547,0.4572 0.3937,0.876299 z"
         style="font-style:normal;font-variant:normal;font-weight:bold;font-stretch:normal;font-size:4.23333px;font-family:'NVIDIA Sans';-inkscape-font-specification:'NVIDIA Sans, Bold';font-variant-ligatures:normal;font-variant-caps:normal;font-variant-numeric:normal;font-variant-east-asian:normal;text-align:center;text-anchor:middle"
         id="path2770" />
      <path
         d="m 162.22254,22.970194 v -0.643467 h 0.6223 v 0.643467 z"
         style="font-style:normal;font-variant:normal;font-weight:bold;font-stretch:normal;font-size:4.23333px;font-family:'NVIDIA Sans';-inkscape-font-specification:'NVIDIA Sans, Bold';font-variant-ligatures:normal;font-variant-caps:normal;font-variant-numeric:normal;font-variant-east-asian:normal;text-align:center;text-anchor:middle"
         id="path2772" />
      <path
         d="m 163.30204,22.970194 v -0.643467 h 0.6223 v 0.643467 z"
         style="font-style:normal;font-variant:normal;font-weight:bold;font-stretch:normal;font-size:4.23333px;font-family:'NVIDIA Sans';-inkscape-font-specification:'NVIDIA Sans, Bold';font-variant-ligatures:normal;font-variant-caps:normal;font-variant-numeric:normal;font-variant-east-asian:normal;text-align:center;text-anchor:middle"
         id="path2774" />
      <path
         d="m 164.38153,22.970194 v -0.643467 h 0.6223 v 0.643467 z"
         style="font-style:normal;font-variant:normal;font-weight:bold;font-stretch:normal;font-size:4.23333px;font-family:'NVIDIA Sans';-inkscape-font-specification:'NVIDIA Sans, Bold';font-variant-ligatures:normal;font-variant-caps:normal;font-variant-numeric:normal;font-variant-east-asian:normal;text-align:center;text-anchor:middle"
         id="path2776" />
      <path
         d="m 165.27476,23.520526 q 0.25824,-0.419099 0.3937,-0.876299 0.13547,-0.461433 0.13547,-0.910166 v -0.245533 q 0,-0.448733 -0.13547,-0.901699 -0.13123,-0.452966 -0.3937,-0.876299 h 0.5842 q 0.2794,0.423333 0.42334,0.872066 0.14393,0.444499 0.14393,0.905932 v 0.245533 q 0,0.935566 -0.56727,1.786465 z"
         style="font-style:normal;font-variant:normal;font-weight:bold;font-stretch:normal;font-size:4.23333px;font-family:'NVIDIA Sans';-inkscape-font-specification:'NVIDIA Sans, Bold';font-variant-ligatures:normal;font-variant-caps:normal;font-variant-numeric:normal;font-variant-east-asian:normal;text-align:center;text-anchor:middle"
         id="path2778" />
    </g>
    <rect
       style="fill:none;fill-opacity:1;stroke:#000000;stroke-width:0.255034;stroke-miterlimit:4;stroke-dasharray:none;stroke-opacity:1"
       id="rect2673"
       width="106.01481"
       height="84.666672"
       x="26.458332"
       y="-10.847918" />
    <g
       aria-label="Node"
       id="text2348"
       style="font-style:normal;font-variant:normal;font-weight:bold;font-stretch:normal;font-size:4.23333px;line-height:1.25;font-family:'NVIDIA Sans';-inkscape-font-specification:'NVIDIA Sans, Bold';font-variant-ligatures:normal;font-variant-caps:normal;font-variant-numeric:normal;font-variant-east-asian:normal;stroke-width:0.264583"
       transform="translate(7.9375004,6.879167)">
      <path
         d="m 24.163868,30.18646 v -2.96333 h 0.550333 l 1.341966,1.934631 V 27.22313 H 26.6446 v 2.96333 h -0.550333 l -1.341966,-1.934631 v 1.934631 z"
         style="font-style:normal;font-variant:normal;font-weight:bold;font-stretch:normal;font-size:4.23333px;font-family:'NVIDIA Sans';-inkscape-font-specification:'NVIDIA Sans, Bold';font-variant-ligatures:normal;font-variant-caps:normal;font-variant-numeric:normal;font-variant-east-asian:normal;stroke-width:0.264583"
         id="path2675" />
      <path
         d="m 28.223627,30.245727 q -0.3048,0 -0.5461,-0.127 -0.2413,-0.127 -0.380999,-0.368299 -0.1397,-0.245534 -0.1397,-0.592667 v -0.127 q 0,-0.351366 0.1397,-0.592666 0.139699,-0.241299 0.380999,-0.368299 0.2413,-0.127 0.5461,-0.127 h 0.02963 q 0.3048,0 0.5461,0.127 0.241299,0.127 0.380999,0.368299 0.1397,0.2413 0.1397,0.592666 v 0.127 q 0,0.347133 -0.1397,0.592667 -0.1397,0.241299 -0.380999,0.368299 -0.2413,0.127 -0.5461,0.127 z m 0,-0.507999 h 0.02963 q 0.207433,0 0.338667,-0.135467 0.135466,-0.135467 0.135466,-0.4318 v -0.1524 q 0,-0.296333 -0.135466,-0.431799 -0.131234,-0.135467 -0.338667,-0.135467 h -0.02963 q -0.207433,0 -0.3429,0.135467 -0.131233,0.135466 -0.131233,0.431799 v 0.1524 q 0,0.296333 0.131233,0.4318 0.135467,0.135467 0.3429,0.135467 z"
         style="font-style:normal;font-variant:normal;font-weight:bold;font-stretch:normal;font-size:4.23333px;font-family:'NVIDIA Sans';-inkscape-font-specification:'NVIDIA Sans, Bold';font-variant-ligatures:normal;font-variant-caps:normal;font-variant-numeric:normal;font-variant-east-asian:normal;stroke-width:0.264583"
         id="path2677" />
      <path
         d="m 30.551958,30.245727 q -0.262466,0 -0.4699,-0.122766 -0.207433,-0.127 -0.325966,-0.372533 -0.1143,-0.245534 -0.1143,-0.5969 v -0.127 q 0,-0.351366 0.1143,-0.592666 0.118533,-0.2413 0.325966,-0.364066 0.207434,-0.127 0.4699,-0.127 h 0.02963 q 0.3937,0 0.613833,0.262466 V 27.09613 h 0.592666 v 3.09033 h -0.516466 v -0.270933 q -0.224366,0.3302 -0.690033,0.3302 z m 0.156633,-0.507999 h 0.03387 q 0.1143,0 0.220133,-0.05503 0.105833,-0.05927 0.173567,-0.186266 0.06773,-0.127 0.06773,-0.334433 v -0.135467 q 0,-0.207433 -0.07197,-0.334433 -0.06773,-0.127 -0.173566,-0.182033 -0.105834,-0.05927 -0.2159,-0.05927 h -0.03387 q -0.2032,0 -0.338666,0.135467 -0.135467,0.135466 -0.135467,0.436033 v 0.1397 q 0,0.300566 0.135467,0.440266 0.135466,0.135467 0.338666,0.135467 z"
         style="font-style:normal;font-variant:normal;font-weight:bold;font-stretch:normal;font-size:4.23333px;font-family:'NVIDIA Sans';-inkscape-font-specification:'NVIDIA Sans, Bold';font-variant-ligatures:normal;font-variant-caps:normal;font-variant-numeric:normal;font-variant-east-asian:normal;stroke-width:0.264583"
         id="path2679" />
      <path
         d="m 33.273984,30.245727 q -0.499533,0 -0.7747,-0.283633 -0.275166,-0.283633 -0.275166,-0.800099 v -0.127 q 0,-0.516466 0.2794,-0.804333 0.2794,-0.287866 0.770466,-0.287866 h 0.03387 q 0.465667,0 0.7239,0.283633 0.262466,0.2794 0.262466,0.774699 v 0.2667 h -1.485898 q 0.02963,0.503766 0.465666,0.503766 h 0.05927 q 0.334433,0 0.4699,-0.224366 l 0.427566,0.283633 q -0.118533,0.194733 -0.355599,0.3048 -0.232833,0.110066 -0.537633,0.110066 z m -0.461433,-1.375832 h 0.905932 v -0.0127 q 0,-0.440266 -0.410633,-0.440266 h -0.03387 q -0.4064,0 -0.461433,0.452966 z"
         style="font-style:normal;font-variant:normal;font-weight:bold;font-stretch:normal;font-size:4.23333px;font-family:'NVIDIA Sans';-inkscape-font-specification:'NVIDIA Sans, Bold';font-variant-ligatures:normal;font-variant-caps:normal;font-variant-numeric:normal;font-variant-east-asian:normal;stroke-width:0.264583"
         id="path2681" />
    </g>
    <text
       xml:space="preserve"
       style="font-style:normal;font-variant:normal;font-weight:bold;font-stretch:normal;font-size:4.23333px;line-height:1.25;font-family:'NVIDIA Sans';-inkscape-font-specification:'NVIDIA Sans, Bold';font-variant-ligatures:normal;font-variant-caps:normal;font-variant-numeric:normal;font-variant-east-asian:normal;stroke-width:0.264583"
       x="74.083344"
       y="-2.6458342"
       id="text2819"><tspan
         sodipodi:role="line"
         id="tspan2817"
         x="74.083344"
         y="-2.6458342"
         style="font-style:normal;font-variant:normal;font-weight:bold;font-stretch:normal;font-size:4.23333px;font-family:'NVIDIA Sans';-inkscape-font-specification:'NVIDIA Sans, Bold';font-variant-ligatures:normal;font-variant-caps:normal;font-variant-numeric:normal;font-variant-east-asian:normal;stroke-width:0.264583">Graph</tspan></text>
    <path
       style="fill:none;stroke:#000000;stroke-width:0.264583px;stroke-linecap:butt;stroke-linejoin:miter;stroke-opacity:1;marker-end:url(#marker2120)"
       d="M 89.826041,5.2916657 V 21.166665"
       id="path2891" />
    <path
       style="fill:none;stroke:#000000;stroke-width:0.264583px;stroke-linecap:butt;stroke-linejoin:miter;stroke-opacity:1;marker-end:url(#marker2120-8)"
       d="m 89.826041,49.477083 v 15.875"
       id="path2891-6" />
    <g
       aria-label="Input Schema
[&quot;colA&quot;]"
       id="text3019"
       style="font-weight:bold;font-size:4.23333px;line-height:1.25;font-family:'NVIDIA Sans';-inkscape-font-specification:'NVIDIA Sans, Bold';white-space:pre;shape-inside:url(#rect3021)">
      <path
         d="M 94.808398,8.0541779 V 5.0908471 h 0.618066 v 2.9633308 z"
         id="path3069" />
      <path
         d="M 96.05299,8.0541779 V 5.8697798 h 0.516466 v 0.2709331 q 0.110066,-0.1566332 0.2794,-0.2412998 0.173566,-0.0889 0.385233,-0.0889 h 0.04233 q 0.372533,0 0.588433,0.2328332 0.220133,0.2285998 0.220133,0.6561661 V 8.0541779 H 97.492322 V 6.7799457 q 0,-0.2201332 -0.09313,-0.3386664 -0.0889,-0.1227666 -0.283634,-0.1227666 h -0.03387 q -0.105833,0 -0.207433,0.055033 -0.09737,0.055033 -0.1651,0.1693332 -0.0635,0.1142999 -0.0635,0.3005664 v 1.2107323 z"
         id="path3071" />
      <path
         d="M 98.609913,8.9008439 V 5.8697798 h 0.516466 v 0.2709331 q 0.224367,-0.3301998 0.690033,-0.3301998 h 0.02963 q 0.266708,0 0.469898,0.1269999 0.20744,0.1227666 0.32174,0.3682997 0.11853,0.2412998 0.11853,0.5968995 v 0.1269999 q 0,0.3471331 -0.11853,0.5926662 -0.1143,0.2412998 -0.32174,0.3682997 -0.20319,0.1227665 -0.469898,0.1227665 h -0.02963 q -0.3937,0 -0.613833,-0.2624664 V 8.9008439 Z M 99.655545,7.605445 h 0.03387 q 0.2032,0 0.338665,-0.1354666 0.13547,-0.1354665 0.13547,-0.436033 V 6.8942456 q 0,-0.3005665 -0.13547,-0.436033 -0.135465,-0.1396999 -0.338665,-0.1396999 h -0.03387 q -0.110066,0 -0.220133,0.059267 -0.105833,0.055033 -0.173566,0.1820332 -0.06773,0.1227666 -0.06773,0.3344331 v 0.1354665 q 0,0.2074332 0.06773,0.3344331 0.07197,0.1269999 0.1778,0.1862665 0.110066,0.055033 0.215899,0.055033 z"
         id="path3073" />
      <path
         d="m 101.95,8.1134445 q -0.35983,0 -0.57149,-0.2285998 -0.21167,-0.2328331 -0.21167,-0.6603994 V 5.8697798 h 0.59266 V 7.144012 q 0,0.2201332 0.0847,0.3428997 0.0847,0.1185333 0.2667,0.1185333 h 0.0339 q 0.1016,0 0.19473,-0.055033 0.0931,-0.055033 0.1524,-0.1693332 0.0635,-0.1185332 0.0635,-0.3005664 V 5.8697798 h 0.59267 v 2.1843981 h -0.51647 V 7.7832448 q -0.10583,0.1608665 -0.27093,0.2455331 -0.1651,0.084667 -0.3683,0.084667 z"
         id="path3075" />
      <path
         d="m 104.7059,8.0795779 q -0.45297,0 -0.64347,-0.1947332 -0.18627,-0.1947331 -0.18627,-0.5799661 V 6.3650793 h -0.45719 V 5.8697798 h 0.45719 V 5.2474803 h 0.59267 v 0.6222995 h 0.6731 l -0.072,0.4952995 h -0.60113 v 0.9186326 q 0,0.1566332 0.0762,0.2285998 0.0804,0.067733 0.2159,0.067733 h 0.381 v 0.4995329 z"
         id="path3077" />
      <path
         d="m 107.63535,8.1134445 q -0.9271,0 -1.1811,-0.6561661 l 0.5207,-0.2666998 q 0.14817,0.3936997 0.6604,0.3936997 h 0.055 q 0.53763,0 0.53763,-0.347133 V 7.194812 q 0,-0.1354666 -0.0931,-0.2328332 -0.0931,-0.097366 -0.2667,-0.1185332 l -0.46144,-0.055033 q -0.42333,-0.0508 -0.64346,-0.2624664 -0.22014,-0.2158998 -0.22014,-0.5841995 v -0.0508 q 0,-0.2624664 0.13547,-0.4529663 0.13547,-0.1947331 0.381,-0.3005664 0.24977,-0.1058332 0.5842,-0.1058332 h 0.0635 q 0.4064,0 0.6858,0.1650998 0.2794,0.1608666 0.40217,0.4698996 L 108.25341,5.89518 q -0.1143,-0.334433 -0.55033,-0.334433 h -0.055 q -0.2286,0 -0.35983,0.0889 -0.127,0.0889 -0.127,0.2370665 v 0.042333 q 0,0.2582331 0.3556,0.3047997 l 0.46143,0.055033 q 0.4318,0.0508 0.6477,0.2836331 0.22014,0.2328331 0.22014,0.6053662 v 0.0508 q 0,0.423333 -0.29634,0.6561661 -0.29633,0.2285998 -0.8509,0.2285998 z"
         id="path3079" />
      <path
         d="m 110.20075,8.1134445 q -0.49107,0 -0.78317,-0.2793997 -0.28786,-0.2793998 -0.28786,-0.808566 V 6.8984789 q 0,-0.347133 0.13123,-0.5884328 0.13547,-0.2455332 0.37677,-0.3725331 0.2413,-0.1269999 0.56303,-0.1269999 h 0.0339 q 0.3175,0 0.5334,0.1523999 0.22013,0.1523999 0.31326,0.4021663 l -0.47836,0.2031999 q -0.0508,-0.1100666 -0.14394,-0.1777999 -0.0889,-0.071967 -0.22436,-0.071967 h -0.0296 q -0.2159,0 -0.35136,0.1396999 -0.13124,0.1354665 -0.13124,0.4275663 v 0.1523999 q 0,0.3005664 0.127,0.4360329 0.13124,0.1312333 0.3556,0.1312333 h 0.0296 q 0.14816,0 0.24553,-0.0635 0.0974,-0.0635 0.1524,-0.1735665 l 0.46143,0.2412998 q -0.0931,0.2158998 -0.3175,0.359833 -0.22436,0.1439332 -0.54186,0.1439332 z"
         id="path3081" />
      <path
         d="M 111.48768,8.0541779 V 4.9638472 h 0.59266 v 1.1048991 q 0.22437,-0.2582332 0.58844,-0.2582332 h 0.0423 q 0.37253,0 0.58843,0.2328332 0.22014,0.2285998 0.22014,0.6561661 v 1.3546655 h -0.59267 V 6.7799457 q 0,-0.2201332 -0.0931,-0.3386664 -0.0889,-0.1227666 -0.28364,-0.1227666 h -0.0339 q -0.10584,0 -0.20744,0.055033 -0.0974,0.055033 -0.1651,0.1693332 -0.0635,0.1142999 -0.0635,0.3005664 v 1.2107323 z"
         id="path3083" />
      <path
         d="m 114.98017,8.1134445 q -0.49954,0 -0.7747,-0.2836331 Q 113.9303,7.5461783 113.9303,7.0297121 V 6.9027122 q 0,-0.5164662 0.2794,-0.8043326 0.2794,-0.2878665 0.77047,-0.2878665 h 0.0339 q 0.46567,0 0.7239,0.2836331 0.26247,0.2793998 0.26247,0.7746994 v 0.2666998 h -1.4859 q 0.0296,0.5037662 0.46567,0.5037662 h 0.0593 q 0.33444,0 0.4699,-0.2243665 l 0.42757,0.2836331 q -0.11853,0.1947332 -0.3556,0.3047998 -0.23283,0.1100665 -0.53763,0.1100665 z m -0.46144,-1.3758321 h 0.90594 v -0.0127 q 0,-0.4402663 -0.41064,-0.4402663 h -0.0339 q -0.4064,0 -0.46144,0.4529663 z"
         id="path3085" />
      <path
         d="M 116.41949,8.0541779 V 5.8697798 h 0.51647 v 0.2666997 q 0.10583,-0.1566332 0.2667,-0.2412998 0.16087,-0.084667 0.36407,-0.084667 h 0.0423 q 0.4572,0 0.65617,0.3555997 0.11006,-0.1693331 0.2794,-0.2624664 0.17356,-0.093133 0.39369,-0.093133 h 0.0423 q 0.3556,0 0.56303,0.2328332 0.21167,0.2285998 0.21167,0.6561661 v 1.3546655 h -0.59267 V 6.7799457 q 0,-0.2201332 -0.0847,-0.3386664 -0.0804,-0.1227666 -0.25823,-0.1227666 h -0.0339 q -0.14393,0 -0.27516,0.1269999 -0.127,0.1227666 -0.127,0.397933 v 1.2107323 h -0.59267 V 6.7799457 q 0,-0.2201332 -0.0847,-0.3386664 -0.0804,-0.1227666 -0.25824,-0.1227666 h -0.0339 q -0.14394,0 -0.27517,0.1269999 -0.127,0.1227666 -0.127,0.397933 v 1.2107323 z"
         id="path3087" />
      <path
         d="m 120.91105,8.1134445 q -0.35136,0 -0.5461,-0.1735665 -0.1905,-0.1735665 -0.1905,-0.4868329 0,-0.2878664 0.17357,-0.461433 0.1778,-0.1735665 0.51223,-0.2158998 l 0.6858,-0.0889 v -0.016933 q 0,-0.385233 -0.35137,-0.385233 h -0.0423 q -0.15663,0 -0.26246,0.059267 -0.10584,0.055033 -0.1778,0.1989665 l -0.45297,-0.2370665 q 0.0974,-0.2243665 0.32597,-0.359833 0.23283,-0.1354666 0.56303,-0.1354666 h 0.0635 q 0.9271,0 0.9271,0.8678326 v 1.3758322 h -0.51647 v -0.275167 q -0.1016,0.1566332 -0.28363,0.2455331 -0.1778,0.0889 -0.4064,0.0889 z m 0.635,-1.0286991 -0.45296,0.0635 q -0.19474,0.029633 -0.27094,0.084667 -0.0762,0.0508 -0.0762,0.1693332 0,0.1142999 0.0847,0.1820332 0.0889,0.0635 0.23283,0.0635 h 0.0339 q 0.21166,0 0.3302,-0.1227666 0.11853,-0.1227666 0.11853,-0.3344331 z"
         id="path3089" />
      <path
         d="m 94.816864,13.896173 v -3.809997 h 1.193799 v 0.512233 H 95.42223 v 2.785531 h 0.588433 v 0.512233 z"
         id="path3091" />
      <path
         d="m 96.476323,11.339242 -0.110066,-1.083733 h 0.584199 l -0.110066,1.083733 z m 0.872066,0 -0.110066,-1.083733 h 0.584199 l -0.110066,1.083733 z"
         id="path3093" />
      <path
         d="m 99.177183,13.405107 q -0.491066,0 -0.783166,-0.2794 -0.287866,-0.2794 -0.287866,-0.808566 v -0.127 q 0,-0.347133 0.131233,-0.588433 0.135467,-0.245533 0.376766,-0.372533 0.2413,-0.127 0.563033,-0.127 h 0.03387 q 0.3175,0 0.5334,0.1524 0.220133,0.1524 0.313267,0.402167 l -0.478367,0.203199 q -0.0508,-0.110066 -0.143934,-0.177799 -0.0889,-0.07197 -0.224366,-0.07197 h -0.02963 q -0.2159,0 -0.351367,0.1397 -0.131233,0.135466 -0.131233,0.427566 v 0.1524 q 0,0.300566 0.127,0.436033 0.131233,0.131233 0.3556,0.131233 h 0.02963 q 0.148167,0 0.245533,-0.0635 0.09737,-0.0635 0.1524,-0.173566 l 0.461434,0.2413 q -0.09314,0.215899 -0.317501,0.359833 -0.224366,0.143933 -0.541866,0.143933 z"
         id="path3095" />
      <path
         d="m 101.41661,13.405107 q -0.3048,0 -0.5461,-0.127 -0.2413,-0.127 -0.381,-0.3683 -0.1397,-0.245533 -0.1397,-0.592666 v -0.127 q 0,-0.351366 0.1397,-0.592666 0.1397,-0.2413 0.381,-0.3683 0.2413,-0.127 0.5461,-0.127 h 0.0296 q 0.3048,0 0.5461,0.127 0.2413,0.127 0.381,0.3683 0.1397,0.2413 0.1397,0.592666 v 0.127 q 0,0.347133 -0.1397,0.592666 -0.1397,0.2413 -0.381,0.3683 -0.2413,0.127 -0.5461,0.127 z m 0,-0.508 h 0.0296 q 0.20744,0 0.33867,-0.135466 0.13547,-0.135467 0.13547,-0.4318 v -0.1524 q 0,-0.296333 -0.13547,-0.4318 -0.13123,-0.135466 -0.33867,-0.135466 h -0.0296 q -0.20743,0 -0.3429,0.135466 -0.13123,0.135467 -0.13123,0.4318 v 0.1524 q 0,0.296333 0.13123,0.4318 0.13547,0.135466 0.3429,0.135466 z"
         id="path3097" />
      <path
         d="m 102.94907,13.34584 v -3.090331 h 0.59267 v 3.090331 z"
         id="path3099" />
      <path
         d="m 103.8677,13.34584 1.143,-2.963331 h 0.55457 l 1.14723,2.963331 h -0.66887 l -0.21166,-0.596899 h -1.12184 l -0.21166,0.596899 z m 1.02447,-1.104899 h 0.75776 l -0.37676,-1.062566 z"
         id="path3101" />
      <path
         d="m 106.86912,11.339242 -0.11006,-1.083733 h 0.5842 l -0.11007,1.083733 z m 0.87207,0 -0.11007,-1.083733 h 0.5842 l -0.11006,1.083733 z"
         id="path3103" />
      <path
         d="M 108.57092,13.896173 V 13.38394 h 0.58843 v -2.785531 h -0.58843 v -0.512233 h 1.1938 v 3.809997 z"
         id="path3105" />
    </g>
    <g
       aria-label="Output Schema
[&quot;colA&quot;, &quot;colB&quot;]"
       transform="translate(0.13123322,51.593777)"
       id="text3019-5"
       style="font-weight:bold;font-size:4.23333px;line-height:1.25;font-family:'NVIDIA Sans';-inkscape-font-specification:'NVIDIA Sans, Bold';white-space:pre;shape-inside:url(#rect3021-1)">
      <path
         d="m 96.048763,8.1134445 q -0.431799,0 -0.740832,-0.1777998 -0.3048,-0.1777999 -0.4699,-0.5037663 Q 94.677164,7.1059121 94.677164,6.6571791 V 6.4878459 q 0,-0.448733 0.160867,-0.7746993 0.1651,-0.3259664 0.4699,-0.5037663 0.309033,-0.1777998 0.740832,-0.1777998 h 0.04233 q 0.431799,0 0.736599,0.1777998 0.309033,0.1777999 0.4699,0.5037663 0.165099,0.3259663 0.165099,0.7746993 v 0.1693332 q 0,0.448733 -0.165099,0.7746993 -0.160867,0.3259664 -0.4699,0.5037663 -0.3048,0.1777998 -0.736599,0.1777998 z m 0.0042,-0.5418662 h 0.03387 q 0.347133,0 0.550333,-0.2243665 0.207433,-0.2243664 0.207433,-0.6773327 V 6.4751459 q 0,-0.4529663 -0.207433,-0.6773327 -0.2032,-0.2243665 -0.550333,-0.2243665 h -0.03387 q -0.347133,0 -0.554567,0.2243665 -0.203199,0.2243664 -0.203199,0.6773327 v 0.1947332 q 0,0.4529663 0.203199,0.6773327 0.207434,0.2243665 0.554567,0.2243665 z"
         id="path3108" />
      <path
         d="m 98.715757,8.1134445 q -0.359833,0 -0.571499,-0.2285998 Q 97.932591,7.6520116 97.932591,7.2244453 V 5.8697798 h 0.592666 V 7.144012 q 0,0.2201332 0.08467,0.3428997 0.08467,0.1185333 0.2667,0.1185333 h 0.03387 q 0.1016,0 0.194734,-0.055033 0.09313,-0.055033 0.1524,-0.1693332 0.0635,-0.1185332 0.0635,-0.3005664 V 5.8697798 H 99.91379 V 8.0541779 H 99.397323 V 7.7832448 q -0.105833,0.1608665 -0.270933,0.2455331 -0.1651,0.084667 -0.368299,0.084667 z"
         id="path3110" />
      <path
         d="m 101.47165,8.0795779 q -0.45297,0 -0.64347,-0.1947332 -0.18626,-0.1947331 -0.18626,-0.5799661 V 6.3650793 h -0.4572 V 5.8697798 h 0.4572 V 5.2474803 h 0.59266 v 0.6222995 h 0.6731 l -0.072,0.4952995 h -0.60114 v 0.9186326 q 0,0.1566332 0.0762,0.2285998 0.0804,0.067733 0.2159,0.067733 h 0.381 v 0.4995329 z"
         id="path3112" />
      <path
         d="M 102.36064,8.9008439 V 5.8697798 h 0.51647 v 0.2709331 q 0.22437,-0.3301998 0.69003,-0.3301998 h 0.0296 q 0.2667,0 0.4699,0.1269999 0.20744,0.1227666 0.32174,0.3682997 0.11853,0.2412998 0.11853,0.5968995 v 0.1269999 q 0,0.3471331 -0.11853,0.5926662 -0.1143,0.2412998 -0.32174,0.3682997 -0.2032,0.1227665 -0.4699,0.1227665 h -0.0296 q -0.3937,0 -0.61383,-0.2624664 v 1.0498658 z m 1.04563,-1.2953989 h 0.0339 q 0.2032,0 0.33867,-0.1354666 0.13546,-0.1354665 0.13546,-0.436033 V 6.8942456 q 0,-0.3005665 -0.13546,-0.436033 -0.13547,-0.1396999 -0.33867,-0.1396999 h -0.0339 q -0.11006,0 -0.22013,0.059267 -0.10583,0.055033 -0.17356,0.1820332 -0.0677,0.1227666 -0.0677,0.3344331 v 0.1354665 q 0,0.2074332 0.0677,0.3344331 0.072,0.1269999 0.17779,0.1862665 0.11007,0.055033 0.2159,0.055033 z"
         id="path3114" />
      <path
         d="m 105.70073,8.1134445 q -0.35983,0 -0.5715,-0.2285998 -0.21166,-0.2328331 -0.21166,-0.6603994 V 5.8697798 h 0.59266 V 7.144012 q 0,0.2201332 0.0847,0.3428997 0.0847,0.1185333 0.2667,0.1185333 h 0.0339 q 0.1016,0 0.19473,-0.055033 0.0931,-0.055033 0.1524,-0.1693332 0.0635,-0.1185332 0.0635,-0.3005664 V 5.8697798 h 0.59267 V 8.0541779 H 106.3823 V 7.7832448 q -0.10583,0.1608665 -0.27093,0.2455331 -0.1651,0.084667 -0.3683,0.084667 z"
         id="path3116" />
      <path
         d="m 108.45663,8.0795779 q -0.45297,0 -0.64347,-0.1947332 -0.18627,-0.1947331 -0.18627,-0.5799661 V 6.3650793 h -0.4572 V 5.8697798 h 0.4572 V 5.2474803 h 0.59267 v 0.6222995 h 0.6731 l -0.072,0.4952995 h -0.60113 v 0.9186326 q 0,0.1566332 0.0762,0.2285998 0.0804,0.067733 0.2159,0.067733 h 0.381 v 0.4995329 z"
         id="path3118" />
      <path
         d="m 111.38608,8.1134445 q -0.9271,0 -1.1811,-0.6561661 l 0.5207,-0.2666998 q 0.14817,0.3936997 0.6604,0.3936997 h 0.055 q 0.53763,0 0.53763,-0.347133 V 7.194812 q 0,-0.1354666 -0.0931,-0.2328332 -0.0931,-0.097366 -0.2667,-0.1185332 l -0.46144,-0.055033 q -0.42333,-0.0508 -0.64346,-0.2624664 -0.22014,-0.2158998 -0.22014,-0.5841995 v -0.0508 q 0,-0.2624664 0.13547,-0.4529663 0.13547,-0.1947331 0.381,-0.3005664 0.24977,-0.1058332 0.5842,-0.1058332 h 0.0635 q 0.4064,0 0.6858,0.1650998 0.2794,0.1608666 0.40217,0.4698996 L 112.00414,5.89518 q -0.1143,-0.334433 -0.55033,-0.334433 h -0.055 q -0.2286,0 -0.35983,0.0889 -0.127,0.0889 -0.127,0.2370665 v 0.042333 q 0,0.2582331 0.3556,0.3047997 l 0.46143,0.055033 q 0.4318,0.0508 0.6477,0.2836331 0.22014,0.2328331 0.22014,0.6053662 v 0.0508 q 0,0.423333 -0.29634,0.6561661 -0.29633,0.2285998 -0.8509,0.2285998 z"
         id="path3120" />
      <path
         d="m 113.95148,8.1134445 q -0.49107,0 -0.78317,-0.2793997 -0.28786,-0.2793998 -0.28786,-0.808566 V 6.8984789 q 0,-0.347133 0.13123,-0.5884328 0.13547,-0.2455332 0.37677,-0.3725331 0.2413,-0.1269999 0.56303,-0.1269999 h 0.0339 q 0.3175,0 0.53339,0.1523999 0.22014,0.1523999 0.31327,0.4021663 l -0.47837,0.2031999 q -0.0508,-0.1100666 -0.14393,-0.1777999 -0.0889,-0.071967 -0.22436,-0.071967 h -0.0296 q -0.2159,0 -0.35136,0.1396999 -0.13124,0.1354665 -0.13124,0.4275663 v 0.1523999 q 0,0.3005664 0.127,0.4360329 0.13124,0.1312333 0.3556,0.1312333 h 0.0296 q 0.14816,0 0.24553,-0.0635 0.0974,-0.0635 0.1524,-0.1735665 l 0.46143,0.2412998 q -0.0931,0.2158998 -0.3175,0.359833 -0.22436,0.1439332 -0.54186,0.1439332 z"
         id="path3122" />
      <path
         d="M 115.23841,8.0541779 V 4.9638472 h 0.59266 v 1.1048991 q 0.22437,-0.2582332 0.58844,-0.2582332 h 0.0423 q 0.37253,0 0.58843,0.2328332 0.22013,0.2285998 0.22013,0.6561661 v 1.3546655 h -0.59266 V 6.7799457 q 0,-0.2201332 -0.0931,-0.3386664 -0.0889,-0.1227666 -0.28363,-0.1227666 h -0.0339 q -0.10584,0 -0.20744,0.055033 -0.0974,0.055033 -0.1651,0.1693332 -0.0635,0.1142999 -0.0635,0.3005664 v 1.2107323 z"
         id="path3124" />
      <path
         d="m 118.73089,8.1134445 q -0.49953,0 -0.77469,-0.2836331 -0.27517,-0.2836331 -0.27517,-0.8000993 V 6.9027122 q 0,-0.5164662 0.2794,-0.8043326 0.2794,-0.2878665 0.77046,-0.2878665 h 0.0339 q 0.46567,0 0.7239,0.2836331 0.26247,0.2793998 0.26247,0.7746994 v 0.2666998 h -1.4859 q 0.0296,0.5037662 0.46566,0.5037662 h 0.0593 q 0.33443,0 0.4699,-0.2243665 l 0.42757,0.2836331 q -0.11854,0.1947332 -0.3556,0.3047998 -0.23284,0.1100665 -0.53764,0.1100665 z m -0.46143,-1.3758321 h 0.90593 v -0.0127 q 0,-0.4402663 -0.41063,-0.4402663 h -0.0339 q -0.40639,0 -0.46143,0.4529663 z"
         id="path3126" />
      <path
         d="M 120.17022,8.0541779 V 5.8697798 h 0.51647 v 0.2666997 q 0.10583,-0.1566332 0.2667,-0.2412998 0.16087,-0.084667 0.36407,-0.084667 h 0.0423 q 0.4572,0 0.65617,0.3555997 0.11006,-0.1693331 0.2794,-0.2624664 0.17356,-0.093133 0.3937,-0.093133 h 0.0423 q 0.3556,0 0.56303,0.2328332 0.21167,0.2285998 0.21167,0.6561661 v 1.3546655 h -0.59267 V 6.7799457 q 0,-0.2201332 -0.0847,-0.3386664 -0.0804,-0.1227666 -0.25824,-0.1227666 h -0.0339 q -0.14394,0 -0.27517,0.1269999 -0.127,0.1227666 -0.127,0.397933 v 1.2107323 h -0.59267 V 6.7799457 q 0,-0.2201332 -0.0847,-0.3386664 -0.0804,-0.1227666 -0.25824,-0.1227666 h -0.0339 q -0.14394,0 -0.27517,0.1269999 -0.127,0.1227666 -0.127,0.397933 v 1.2107323 z"
         id="path3128" />
      <path
         d="m 124.66178,8.1134445 q -0.35137,0 -0.5461,-0.1735665 -0.1905,-0.1735665 -0.1905,-0.4868329 0,-0.2878664 0.17357,-0.461433 0.1778,-0.1735665 0.51223,-0.2158998 l 0.6858,-0.0889 v -0.016933 q 0,-0.385233 -0.35137,-0.385233 h -0.0423 q -0.15663,0 -0.26247,0.059267 -0.10583,0.055033 -0.1778,0.1989665 l -0.45296,-0.2370665 q 0.0974,-0.2243665 0.32596,-0.359833 0.23284,-0.1354666 0.56304,-0.1354666 h 0.0635 q 0.9271,0 0.9271,0.8678326 v 1.3758322 h -0.51647 v -0.275167 q -0.1016,0.1566332 -0.28363,0.2455331 -0.1778,0.0889 -0.4064,0.0889 z m 0.635,-1.0286991 -0.45297,0.0635 q -0.19473,0.029633 -0.27093,0.084667 -0.0762,0.0508 -0.0762,0.1693332 0,0.1142999 0.0847,0.1820332 0.0889,0.0635 0.23283,0.0635 h 0.0339 q 0.21166,0 0.3302,-0.1227666 0.11853,-0.1227666 0.11853,-0.3344331 z"
         id="path3130" />
      <path
         d="m 94.816864,13.896173 v -3.809997 h 1.193799 v 0.512233 H 95.42223 v 2.785531 h 0.588433 v 0.512233 z"
         id="path3132" />
      <path
         d="m 96.476323,11.339242 -0.110066,-1.083733 h 0.584199 l -0.110066,1.083733 z m 0.872066,0 -0.110066,-1.083733 h 0.584199 l -0.110066,1.083733 z"
         id="path3134" />
      <path
         d="m 99.177183,13.405107 q -0.491066,0 -0.783166,-0.2794 -0.287866,-0.2794 -0.287866,-0.808566 v -0.127 q 0,-0.347133 0.131233,-0.588433 0.135467,-0.245533 0.376766,-0.372533 0.2413,-0.127 0.563033,-0.127 h 0.03387 q 0.3175,0 0.5334,0.1524 0.220133,0.1524 0.313267,0.402167 l -0.478367,0.203199 q -0.0508,-0.110066 -0.143934,-0.177799 -0.0889,-0.07197 -0.224366,-0.07197 h -0.02963 q -0.2159,0 -0.351367,0.1397 -0.131233,0.135466 -0.131233,0.427566 v 0.1524 q 0,0.300566 0.127,0.436033 0.131233,0.131233 0.3556,0.131233 h 0.02963 q 0.148167,0 0.245533,-0.0635 0.09737,-0.0635 0.1524,-0.173566 l 0.461434,0.2413 q -0.09314,0.215899 -0.317501,0.359833 -0.224366,0.143933 -0.541866,0.143933 z"
         id="path3136" />
      <path
         d="m 101.41661,13.405107 q -0.3048,0 -0.5461,-0.127 -0.2413,-0.127 -0.381,-0.3683 -0.1397,-0.245533 -0.1397,-0.592666 v -0.127 q 0,-0.351366 0.1397,-0.592666 0.1397,-0.2413 0.381,-0.3683 0.2413,-0.127 0.5461,-0.127 h 0.0296 q 0.3048,0 0.5461,0.127 0.2413,0.127 0.381,0.3683 0.1397,0.2413 0.1397,0.592666 v 0.127 q 0,0.347133 -0.1397,0.592666 -0.1397,0.2413 -0.381,0.3683 -0.2413,0.127 -0.5461,0.127 z m 0,-0.508 h 0.0296 q 0.20744,0 0.33867,-0.135466 0.13547,-0.135467 0.13547,-0.4318 v -0.1524 q 0,-0.296333 -0.13547,-0.4318 -0.13123,-0.135466 -0.33867,-0.135466 h -0.0296 q -0.20743,0 -0.3429,0.135466 -0.13123,0.135467 -0.13123,0.4318 v 0.1524 q 0,0.296333 0.13123,0.4318 0.13547,0.135466 0.3429,0.135466 z"
         id="path3138" />
      <path
         d="m 102.94907,13.34584 v -3.090331 h 0.59267 v 3.090331 z"
         id="path3140" />
      <path
         d="m 103.8677,13.34584 1.143,-2.963331 h 0.55457 l 1.14723,2.963331 h -0.66887 l -0.21166,-0.596899 h -1.12184 l -0.21166,0.596899 z m 1.02447,-1.104899 h 0.75776 l -0.37676,-1.062566 z"
         id="path3142" />
      <path
         d="m 106.86912,11.339242 -0.11006,-1.083733 h 0.5842 l -0.11007,1.083733 z m 0.87207,0 -0.11007,-1.083733 h 0.5842 l -0.11006,1.083733 z"
         id="path3144" />
      <path
         d="m 108.67675,14.116306 -0.18627,-0.262466 0.15664,-0.110067 q 0.1016,-0.07197 0.1524,-0.143933 0.0508,-0.06773 0.0508,-0.232833 v -0.02117 h -0.28364 v -0.643466 h 0.6223 v 0.677333 q 0,0.1778 -0.0466,0.287866 -0.0423,0.1143 -0.127,0.1905 -0.0847,0.08043 -0.20744,0.1651 z"
         id="path3146" />
      <path
         d="m 110.7934,11.339242 -0.11006,-1.083733 h 0.5842 l -0.11007,1.083733 z m 0.87207,0 -0.11007,-1.083733 h 0.5842 l -0.11006,1.083733 z"
         id="path3148" />
      <path
         d="m 113.49426,13.405107 q -0.49106,0 -0.78316,-0.2794 -0.28787,-0.2794 -0.28787,-0.808566 v -0.127 q 0,-0.347133 0.13124,-0.588433 0.13546,-0.245533 0.37676,-0.372533 0.2413,-0.127 0.56303,-0.127 h 0.0339 q 0.3175,0 0.5334,0.1524 0.22013,0.1524 0.31327,0.402167 l -0.47837,0.203199 q -0.0508,-0.110066 -0.14393,-0.177799 -0.0889,-0.07197 -0.22437,-0.07197 h -0.0296 q -0.2159,0 -0.35137,0.1397 -0.13123,0.135466 -0.13123,0.427566 v 0.1524 q 0,0.300566 0.127,0.436033 0.13123,0.131233 0.3556,0.131233 h 0.0296 q 0.14817,0 0.24553,-0.0635 0.0974,-0.0635 0.1524,-0.173566 l 0.46144,0.2413 q -0.0931,0.215899 -0.3175,0.359833 -0.22437,0.143933 -0.54187,0.143933 z"
         id="path3150" />
      <path
         d="m 115.73369,13.405107 q -0.3048,0 -0.5461,-0.127 -0.2413,-0.127 -0.381,-0.3683 -0.1397,-0.245533 -0.1397,-0.592666 v -0.127 q 0,-0.351366 0.1397,-0.592666 0.1397,-0.2413 0.381,-0.3683 0.2413,-0.127 0.5461,-0.127 h 0.0296 q 0.3048,0 0.5461,0.127 0.2413,0.127 0.381,0.3683 0.1397,0.2413 0.1397,0.592666 v 0.127 q 0,0.347133 -0.1397,0.592666 -0.1397,0.2413 -0.381,0.3683 -0.2413,0.127 -0.5461,0.127 z m 0,-0.508 h 0.0296 q 0.20744,0 0.33867,-0.135466 0.13547,-0.135467 0.13547,-0.4318 v -0.1524 q 0,-0.296333 -0.13547,-0.4318 -0.13123,-0.135466 -0.33867,-0.135466 h -0.0296 q -0.20743,0 -0.3429,0.135466 -0.13123,0.135467 -0.13123,0.4318 v 0.1524 q 0,0.296333 0.13123,0.4318 0.13547,0.135466 0.3429,0.135466 z"
         id="path3152" />
      <path
         d="m 117.26616,13.34584 v -3.090331 h 0.59266 v 3.090331 z"
         id="path3154" />
      <path
         d="m 118.48535,13.34584 v -2.963331 h 1.2065 q 0.48683,0 0.76623,0.224367 0.28363,0.220133 0.28363,0.596899 v 0.07197 q 0,0.169333 -0.0889,0.3048 -0.0847,0.131233 -0.2413,0.220133 0.22014,0.0889 0.33867,0.249766 0.11853,0.160867 0.11853,0.385233 v 0.07197 q 0,0.3937 -0.2794,0.618066 -0.27516,0.220133 -0.77046,0.220133 z m 0.61806,-0.524933 h 0.6985 q 0.44874,0 0.44874,-0.313266 v -0.08043 q 0,-0.1524 -0.11854,-0.237067 -0.1143,-0.08467 -0.3302,-0.08467 h -0.6985 z m 0,-1.231899 h 0.5715 q 0.44874,0 0.44874,-0.304799 v -0.07197 q 0,-0.143933 -0.11854,-0.224367 -0.1143,-0.08043 -0.3302,-0.08043 h -0.5715 z"
         id="path3156" />
      <path
         d="m 121.2751,11.339242 -0.11006,-1.083733 h 0.5842 l -0.11007,1.083733 z m 0.87207,0 -0.11007,-1.083733 h 0.5842 l -0.11006,1.083733 z"
         id="path3158" />
      <path
         d="M 122.9769,13.896173 V 13.38394 h 0.58843 v -2.785531 h -0.58843 v -0.512233 h 1.1938 v 3.809997 z"
         id="path3160" />
    </g>
  </g>
</svg>
